# Rhino

mtllib B27.mtl
usemtl B27
v -166.54231262207031 15 1003.6192626953125
v -162.0057373046875 15 1008.458251953125
v -157.94833374023438 15 995.5623779296875
v -153.41175842285156 15 1000.4013671875
vt 0.1217741072177887 0.86562478542327881
vt 0.1217741072177887 0.89344209432601929
vt 0.1711772233247757 0.86562478542327881
vt 0.17117728292942047 0.89344209432601929
vn 0 -1 0
vn 0 -1 0
vn 0 -1 0
vn 0 -1 0
f 2/2/2 1/1/1 3/3/3 4/4/4
usemtl B27
v -166.54231262207031 27.87664794921875 1003.6192626953125
v -166.54231262207031 15 1003.6192626953125
v -162.0057373046875 15 1008.458251953125
v -162.0057373046875 27.87664794921875 1008.458251953125
vt 0.09586266428232193 0.38777497410774231
vt 0.095862731337547302 0.33377274870872498
vt 0.1114981397986412 0.33377283811569214
vt 0.11149810999631882 0.38777497410774231
vn -0.72953718900680542 0 0.68394112586975098
vn -0.72953718900680542 0 0.68394112586975098
vn -0.72953718900680542 0 0.68394112586975098
vn -0.72953718900680542 0 0.68394112586975098
f 8/8/8 5/5/5 6/6/6 7/7/7
usemtl B27
v -162.0057373046875 27.87664794921875 1008.458251953125
v -166.54231262207031 27.87664794921875 1003.6192626953125
v -158.2550048828125 30.373924255371094 1004.94189453125
v -162.79159545898438 30.373924255371094 1000.1029052734375
vt 0.19978275895118713 0.83367586135864258
vt 0.17196550965309143 0.83367586135864258
vt 0.19978274405002594 0.85764628648757935
vt 0.17196536064147949 0.85764616727828979
vn -0.31874820590019226 0.89950114488601685 0.29882645606994629
vn -0.31874820590019226 0.89950114488601685 0.29882645606994629
vn -0.31874820590019226 0.89950114488601685 0.29882645606994629
vn -0.31874820590019226 0.89950114488601685 0.29882645606994629
f 10/10/10 9/9/9 11/11/11 12/12/12
usemtl B27
v -158.2550048828125 30.373924255371094 1004.94189453125
v -162.79159545898438 30.373924255371094 1000.1029052734375
v -155.61293029785156 28.364505767822266 1002.4649658203125
v -160.14950561523438 28.364505767822266 997.6259765625
vt 0.19978274405002594 0.85764628648757935
vt 0.17196528613567352 0.85764628648757935
vt 0.19978277385234833 0.8750157356262207
vt 0.1719653457403183 0.87501567602157593
vn 0.35394826531410217 0.87442082166671753 -0.33182650804519653
vn 0.35394826531410217 0.87442082166671753 -0.33182650804519653
vn 0.35394826531410217 0.87442082166671753 -0.33182650804519653
vn 0.35394826531410217 0.87442082166671753 -0.33182650804519653
f 14/14/14 13/13/13 15/15/15 16/16/16
usemtl B27
v -155.61293029785156 28.364505767822266 1002.4649658203125
v -160.14950561523438 28.364505767822266 997.6259765625
v -153.41175842285156 28.364505767822266 1000.4013671875
v -157.94833374023438 28.364505767822266 995.5623779296875
vt 0.19978275895118713 0.82102221250534058
vt 0.17196537554264069 0.82102221250534058
vt 0.19978275895118713 0.8336758017539978
vt 0.17196537554264069 0.83367574214935303
vn 0 1 0
vn 0 1 0
vn 0 1 0
vn 0 1 0
f 18/18/18 17/17/17 19/19/19 20/20/20
usemtl B27
v -157.94833374023438 15 995.5623779296875
v -153.41175842285156 15 1000.4013671875
v -157.94833374023438 28.364505767822266 995.5623779296875
v -153.41175842285156 28.364505767822266 1000.4013671875
vt 0.17508481442928314 0.50515604019165039
vt 0.20290225744247437 0.50515604019165039
vt 0.17508490383625031 0.44910779595375061
vt 0.20290228724479675 0.44910785555839539
vn 0.72953718900680542 0 -0.68394112586975098
vn 0.72953718900680542 0 -0.68394112586975098
vn 0.72953718900680542 0 -0.68394112586975098
vn 0.72953718900680542 0 -0.68394112586975098
f 22/22/22 21/21/21 23/23/23 24/24/24
usemtl B27
v -166.54231262207031 15 1003.6192626953125
v -157.94833374023438 15 995.5623779296875
v -157.94833374023438 28.364505767822266 995.5623779296875
v -162.79159545898438 30.373924255371094 1000.1029052734375
v -166.54231262207031 27.87664794921875 1003.6192626953125
v -160.14950561523438 28.364505767822266 997.6259765625
vt 0.12271964550018311 0.33283746242523193
vt 0.17064195871353149 0.33283743262290955
vt 0.17064195871353149 0.38888561725616455
vt 0.14363467693328857 0.3973127007484436
vt 0.12271964550018311 0.38683962821960449
vt 0.15836760401725769 0.38888561725616455
vn -0.68394112586975098 0 -0.72953718900680542
vn -0.68394112586975098 0 -0.72953718900680542
vn -0.68394112586975098 0 -0.72953718900680542
vn -0.68394112586975098 0 -0.72953718900680542
vn -0.68394112586975098 0 -0.72953718900680542
vn -0.68394112586975098 0 -0.72953718900680542
f 28/28/28 30/30/30 29/29/29
f 25/25/25 29/29/29 30/30/30
f 27/27/27 26/26/26 30/30/30
f 25/25/25 30/30/30 26/26/26
usemtl B27
v -162.0057373046875 15 1008.458251953125
v -153.41175842285156 15 1000.4013671875
v -153.41175842285156 28.364505767822266 1000.4013671875
v -158.2550048828125 30.373924255371094 1004.94189453125
v -162.0057373046875 27.87664794921875 1008.458251953125
v -155.61293029785156 28.364505767822266 1002.4649658203125
vt 0.1217741072177887 0.33260455727577209
vt 0.17117731273174286 0.33260455727577209
vt 0.17117731273174286 0.3886527419090271
vt 0.1433354914188385 0.39707988500595093
vt 0.1217741072177887 0.38660675287246704
vt 0.15852367877960205 0.3886527419090271
vn 0.68394112586975098 0 0.72953718900680542
vn 0.68394112586975098 0 0.72953718900680542
vn 0.68394112586975098 0 0.72953718900680542
vn 0.68394112586975098 0 0.72953718900680542
vn 0.68394112586975098 0 0.72953718900680542
vn 0.68394112586975098 0 0.72953718900680542
f 34/34/34 35/35/35 36/36/36
f 31/31/31 36/36/36 35/35/35
f 33/33/33 36/36/36 32/32/32
f 31/31/31 32/32/32 36/36/36
usemtl B27
v -136.34858703613281 45 975.3126220703125
v -204.74270629882812 45 902.35888671875
v -180.12081909179688 45 1016.3490600585938
v -248.51493835449219 45 943.39532470703125
v -158.23471069335938 61 995.830810546875
v -226.62881469726562 61 922.87713623046875
vt 0.23972582817077637 0.95283544063568115
vt 0.47607490420341492 0.95283544063568115
vt 0.23972584307193756 0.81102603673934937
vt 0.47607490420341492 0.81102609634399414
vt 0.46684315800666809 0.64927417039871216
vt 0.15815688669681549 0.64927417039871216
vt 0.46684309840202332 0.7542273998260498
vt 0.15815693140029907 0.7542273998260498
vt 0.15815696120262146 0.75422728061676025
vt 0.46684309840202332 0.7542273998260498
vt 0.15815690159797668 0.64927405118942261
vt 0.46684315800666809 0.64927405118942261
vt 0.27642479538917542 0.57422524690628052
vt 0.047686409205198288 0.57238239049911499
vt 0.16154924035072327 0.63248997926712036
vt 0.4508475661277771 0.14084748923778534
vt 0.67644417285919189 0.14122423529624939
vt 0.56354540586471558 0.20119494199752808
vn 0 -1 0
vn 0 -1 0
vn 0 -1 0
vn 0 -1 0
vn -0.34331163763999939 0.88235294818878174 0.32185465097427368
vn -0.34331163763999939 0.88235294818878174 0.32185465097427368
vn -0.34331163763999939 0.88235294818878174 0.32185465097427368
vn -0.34331163763999939 0.88235294818878174 0.32185465097427368
vn 0.34331163763999939 0.88235294818878174 -0.32185465097427368
vn 0.34331163763999939 0.88235294818878174 -0.32185465097427368
vn 0.34331163763999939 0.88235294818878174 -0.32185465097427368
vn 0.34331163763999939 0.88235294818878174 -0.32185465097427368
vn 0.68394112586975098 0 0.72953718900680542
vn 0.68394112586975098 0 0.72953718900680542
vn 0.68394112586975098 0 0.72953718900680542
vn -0.68394112586975098 0 -0.72953718900680542
vn -0.68394112586975098 0 -0.72953718900680542
vn -0.68394112586975098 0 -0.72953718900680542
f 37/37/37 39/39/39 40/40/40 38/38/38
f 39/41/41 41/43/43 42/44/44 40/42/42
f 41/45/45 37/47/47 38/48/48 42/46/46
f 41/51/51 39/50/50 37/49/49
f 42/54/54 38/52/52 40/53/53
usemtl B27
v -139.0843505859375 15 840.80419921875
v -139.0843505859375 45 840.80419921875
v -248.51493835449219 15 943.39532470703125
v -248.51493835449219 45 943.39532470703125
v -180.12081909179688 15 1016.3490600585938
v -180.12081909179688 45 1016.3490600585938
v -125.40553283691406 15 965.053466796875
v -125.40553283691406 45 965.053466796875
v -125.40553283691406 15 855.39495849609375
v -125.40553283691406 45 855.39495849609375
vt 0.069350026547908783 0.016264799982309341
vt 0.069350026547908783 0.13941830396652222
vt 0.68820130825042725 0.016264799982309341
vt 0.68820130825042725 0.13941830396652222
vt 0.028752321377396584 0.18105213344097137
vt 0.028752321377396584 0.30392736196517944
vt 0.44013836979866028 0.18105213344097137
vt 0.44013836979866028 0.30392736196517944
vt 0.039090495556592941 0.44704428315162659
vt 0.039090495556592941 0.57190197706222534
vt 0.34687784314155579 0.44704428315162659
vt 0.34687784314155579 0.57190197706222534
vt 0.35069859027862549 0.44723168015480042
vt 0.35069859027862549 0.57161909341812134
vt 0.82884699106216431 0.44723165035247803
vt 0.82884693145751953 0.57161915302276611
vt 0.35657480359077454 0.44704428315162659
vt 0.35657480359077454 0.57190191745758057
vt 0.43497475981712341 0.44704428315162659
vt 0.43497475981712341 0.57190191745758057
vt 0.1562550812959671 0.97294139862060547
vt 0.443744957447052 0.97294145822525024
vt 0.443744957447052 0.78128153085708618
vt 0.29999998211860657 0.78128159046173096
vt 0.15625511109828949 0.93460941314697266
vt 0.51369845867156982 0.973602294921875
vt 0.2340293824672699 0.973602294921875
vt 0.2340293824672699 0.78715622425079346
vt 0.37386393547058105 0.78715622425079346
vt 0.51369839906692505 0.93631303310394287
vn -0.68394112586975098 0 -0.72953718900680542
vn -0.68394112586975098 0 -0.72953718900680542
vn -0.68394112586975098 0 -0.72953718900680542
vn -0.68394112586975098 0 -0.72953718900680542
vn -0.72953718900680542 0 0.68394112586975098
vn -0.72953718900680542 0 0.68394112586975098
vn -0.72953718900680542 0 0.68394112586975098
vn -0.72953718900680542 0 0.68394112586975098
vn 0.68394112586975098 0 0.72953718900680542
vn 0.68394112586975098 0 0.72953718900680542
vn 0.68394112586975098 0 0.72953718900680542
vn 0.68394112586975098 0 0.72953718900680542
vn 1 0 0
vn 1 0 0
vn 1 0 0
vn 1 0 0
vn 0.72953718900680542 0 -0.68394112586975098
vn 0.72953718900680542 0 -0.68394112586975098
vn 0.72953718900680542 0 -0.68394112586975098
vn 0.72953718900680542 0 -0.68394112586975098
vn 0 -1 0
vn 0 -1 0
vn 0 -1 0
vn 0 -1 0
vn 0 -1 0
vn 0 1 0
vn 0 1 0
vn 0 1 0
vn 0 1 0
vn 0 1 0
f 43/55/55 45/57/57 46/58/58 44/56/56
f 45/59/59 47/61/61 48/62/62 46/60/60
f 47/63/63 49/65/65 50/66/66 48/64/64
f 49/67/67 51/69/69 52/70/70 50/68/68
f 51/71/71 43/73/73 44/74/74 52/72/72
f 45/76/76 49/78/78 47/77/77
f 45/76/76 43/75/75 51/79/79
f 49/78/78 45/76/76 51/79/79
f 46/81/81 48/82/82 50/83/83
f 46/81/81 52/84/84 44/80/80
f 50/83/83 52/84/84 46/81/81
