# Rhino

mtllib lights.mtl
usemtl lights
v 11965.8447265625 15 -18810.130859375
v 11965.8447265625 2515 -18810.130859375
v 10513.21484375 15 -19643.00390625
v 10513.21484375 2515 -19643.00390625
v 9002.4052734375 15 -20364.994140625
v 9002.4052734375 2515 -20364.994140625
v 7441.8662109375 15 -20972.060546875
v 7441.8662109375 2515 -20972.060546875
v 5840.32470703125 15 -21460.8125
v 5840.32470703125 2515 -21460.8125
v 4206.73681640625 15 -21828.513671875
v 4206.73681640625 2515 -21828.513671875
v 2550.238525390625 15 -22073.107421875
v 2550.238525390625 2515 -22073.107421875
v 880.0936279296875 15 -22193.228515625
v 880.0936279296875 2515 -22193.228515625
v -794.35791015625 15 -22188.203125
v -794.35791015625 2515 -22188.203125
v -2463.751708984375 15 -22058.060546875
v -2463.751708984375 2515 -22058.060546875
v -4118.751953125 15 -21803.52734375
v -4118.751953125 2515 -21803.52734375
v -5750.103515625 15 -21426.02734375
v -5750.103515625 2515 -21426.02734375
v -7348.6826171875 15 -20927.671875
v -7348.6826171875 2515 -20927.671875
v -8905.5498046875 15 -20311.248046875
v -8905.5498046875 2515 -20311.248046875
v -10411.998046875 15 -19580.203125
v -10411.998046875 2515 -19580.203125
v -11859.6025390625 15 -18738.625
v -11859.6025390625 2515 -18738.625
v -13240.2685546875 15 -17791.220703125
v -13240.2685546875 2515 -17791.220703125
v -14546.2734375 15 -16743.287109375
v -14546.2734375 2515 -16743.287109375
v -15770.3154296875 15 -15600.6875
v -15770.3154296875 2515 -15600.6875
v -16905.548828125 15 -14369.8095703125
v -16905.548828125 2515 -14369.8095703125
v -17945.623046875 15 -13057.537109375
v -17945.623046875 2515 -13057.537109375
v -18884.72265625 15 -11671.2099609375
v -18884.72265625 2515 -11671.2099609375
v -19717.595703125 15 -10218.5791015625
v -19717.595703125 2515 -10218.5791015625
v -20439.5859375 15 -8707.7705078125
v -20439.5859375 2515 -8707.7705078125
v -21046.65234375 15 -7147.2314453125
v -21046.65234375 2515 -7147.2314453125
v -21535.404296875 15 -5545.689453125
v -21535.404296875 2515 -5545.689453125
v -21903.10546875 15 -3912.101806640625
v -21903.10546875 2515 -3912.101806640625
v -22147.69921875 15 -2255.603515625
v -22147.69921875 2515 -2255.603515625
v -22267.8203125 15 -585.45855712890625
v -22267.8203125 2515 -585.45855712890625
v -22262.794921875 15 1088.992919921875
v -22262.794921875 2515 1088.992919921875
v -22132.65234375 15 2758.38671875
v -22132.65234375 2515 2758.38671875
v -21878.119140625 15 4413.38720703125
v -21878.119140625 2515 4413.38720703125
v -21500.619140625 15 6044.73828125
v -21500.619140625 2515 6044.73828125
v -21002.263671875 15 7643.3173828125
v -21002.263671875 2515 7643.3173828125
v -20385.83984375 15 9200.1845703125
v -20385.83984375 2515 9200.1845703125
v -19654.794921875 15 10706.6328125
v -19654.794921875 2515 10706.6328125
v -18813.216796875 15 12154.2373046875
v -18813.216796875 2515 12154.2373046875
v -17865.8125 15 13534.9033203125
v -17865.8125 2515 13534.9033203125
v -16817.87890625 15 14840.9091796875
v -16817.87890625 2515 14840.9091796875
v -15675.279296875 15 16064.9501953125
v -15675.279296875 2515 16064.9501953125
v -14444.4013671875 15 17200.18359375
v -14444.4013671875 2515 17200.18359375
v -13132.12890625 15 18240.2578125
v -13132.12890625 2515 18240.2578125
v -11745.8017578125 15 19179.357421875
v -11745.8017578125 2515 19179.357421875
v -10293.1708984375 15 20012.23046875
v -10293.1708984375 2515 20012.23046875
v -8782.3623046875 15 20734.220703125
v -8782.3623046875 2515 20734.220703125
v -7221.82275390625 15 21341.2890625
v -7221.82275390625 2515 21341.2890625
v -5620.28125 15 21830.0390625
v -5620.28125 2515 21830.0390625
v -3986.693359375 15 22197.740234375
v -3986.693359375 2515 22197.740234375
v -2330.195068359375 15 22442.3359375
v -2330.195068359375 2515 22442.3359375
v -660.05023193359375 15 22562.455078125
v -660.05023193359375 2515 22562.455078125
v 1014.4013061523438 15 22557.4296875
v 1014.4013061523438 2515 22557.4296875
v 2683.795166015625 15 22427.287109375
v 2683.795166015625 2515 22427.287109375
v 4338.79541015625 15 22172.75390625
v 4338.79541015625 2515 22172.75390625
v 5970.146484375 15 21795.25390625
v 5970.146484375 2515 21795.25390625
v 7568.7255859375 15 21296.8984375
v 7568.7255859375 2515 21296.8984375
v 9125.5927734375 15 20680.474609375
v 9125.5927734375 2515 20680.474609375
v 10632.041015625 15 19949.4296875
v 10632.041015625 2515 19949.4296875
v 12079.6455078125 15 19107.8515625
v 12079.6455078125 2515 19107.8515625
v 13460.3115234375 15 18160.447265625
v 13460.3115234375 2515 18160.447265625
v 14766.3173828125 15 17112.513671875
v 14766.3173828125 2515 17112.513671875
v 15990.359375 15 15969.9140625
v 15990.359375 2515 15969.9140625
v 17125.591796875 15 14739.0361328125
v 17125.591796875 2515 14739.0361328125
v 18165.666015625 15 13426.763671875
v 18165.666015625 2515 13426.763671875
v 19104.765625 15 12040.4365234375
v 19104.765625 2515 12040.4365234375
v 19937.638671875 15 10587.8056640625
v 19937.638671875 2515 10587.8056640625
v 20659.62890625 15 9076.9970703125
v 20659.62890625 2515 9076.9970703125
v 21266.697265625 15 7516.4580078125
v 21266.697265625 2515 7516.4580078125
v 21755.447265625 15 5914.91650390625
v 21755.447265625 2515 5914.91650390625
v 22123.1484375 15 4281.32861328125
v 22123.1484375 2515 4281.32861328125
v 22367.744140625 15 2624.830322265625
v 22367.744140625 2515 2624.830322265625
v 22487.86328125 15 954.68524169921875
v 22487.86328125 2515 954.68524169921875
v 22482.837890625 15 -719.76629638671875
v 22482.837890625 2515 -719.76629638671875
v 22352.6953125 15 -2389.16015625
v 22352.6953125 2515 -2389.16015625
v 22098.162109375 15 -4044.160400390625
v 22098.162109375 2515 -4044.160400390625
v 21720.662109375 15 -5675.51171875
v 21720.662109375 2515 -5675.51171875
v 21222.306640625 15 -7274.0908203125
v 21222.306640625 2515 -7274.0908203125
v 20605.8828125 15 -8830.9580078125
v 20605.8828125 2515 -8830.9580078125
v 19874.837890625 15 -10337.40625
v 19874.837890625 2515 -10337.40625
v 19033.259765625 15 -11785.0107421875
v 19033.259765625 2515 -11785.0107421875
v 18085.85546875 15 -13165.6767578125
v 18085.85546875 2515 -13165.6767578125
v 17037.921875 15 -14471.6826171875
v 17037.921875 2515 -14471.6826171875
v 15895.322265625 15 -15695.7236328125
v 15895.322265625 2515 -15695.7236328125
v 14664.4443359375 15 -16830.95703125
v 14664.4443359375 2515 -16830.95703125
v 13352.1728515625 15 -17871.03125
v 13352.1728515625 2515 -17871.03125
vt 0.79337531328201294 0.9208984375
vt 0.79337531328201294 0.98137080669403076
vt 0.78603851795196533 0.9208984375
vt 0.78603851795196533 0.98137080669403076
vt 0.77870184183120728 0.9208984375
vt 0.77870184183120728 0.98137080669403076
vt 0.77136504650115967 0.9208984375
vt 0.77136504650115967 0.98137080669403076
vt 0.76402842998504639 0.9208984375
vt 0.76402842998504639 0.98137080669403076
vt 0.75669169425964355 0.9208984375
vt 0.75669169425964355 0.98137080669403076
vt 0.74935489892959595 0.9208984375
vt 0.74935489892959595 0.98137080669403076
vt 0.74201810359954834 0.9208984375
vt 0.74201810359954834 0.98137080669403076
vt 0.73468148708343506 0.9208984375
vt 0.73468148708343506 0.98137080669403076
vt 0.72734463214874268 0.9208984375
vt 0.72734463214874268 0.98137080669403076
vt 0.72000795602798462 0.9208984375
vt 0.72000795602798462 0.98137080669403076
vt 0.71267116069793701 0.9208984375
vt 0.71267116069793701 0.98137080669403076
vt 0.70533454418182373 0.9208984375
vt 0.70533454418182373 0.98137080669403076
vt 0.69799798727035522 0.9208984375
vt 0.69799798727035522 0.98137080669403076
vt 0.69066107273101807 0.9208984375
vt 0.69066107273101807 0.98137080669403076
vt 0.68332439661026001 0.9208984375
vt 0.68332439661026001 0.98137080669403076
vt 0.67598766088485718 0.9208984375
vt 0.67598766088485718 0.98137080669403076
vt 0.66865080595016479 0.9208984375
vt 0.66865080595016479 0.98137080669403076
vt 0.66131412982940674 0.9208984375
vt 0.66131412982940674 0.98137080669403076
vt 0.65397745370864868 0.9208984375
vt 0.65397745370864868 0.98137080669403076
vt 0.64664071798324585 0.9208984375
vt 0.64664071798324585 0.98137080669403076
vt 0.63930386304855347 0.9208984375
vt 0.63930386304855347 0.98137080669403076
vt 0.63196742534637451 0.9208984375
vt 0.63196742534637451 0.98137080669403076
vt 0.62463051080703735 0.9208984375
vt 0.62463051080703735 0.98137080669403076
vt 0.61729377508163452 0.9208984375
vt 0.61729377508163452 0.98137080669403076
vt 0.60995715856552124 0.9208984375
vt 0.60995715856552124 0.98137080669403076
vt 0.60262036323547363 0.9208984375
vt 0.60262036323547363 0.98137080669403076
vt 0.59528356790542603 0.9208984375
vt 0.59528356790542603 0.98137080669403076
vt 0.58794683218002319 0.9208984375
vt 0.58794683218002319 0.98137080669403076
vt 0.58061027526855469 0.9208984375
vt 0.58061027526855469 0.98137080669403076
vt 0.57327336072921753 0.9208984375
vt 0.57327336072921753 0.98137080669403076
vt 0.5659366250038147 0.9208984375
vt 0.5659366250038147 0.98137080669403076
vt 0.55860006809234619 0.9208984375
vt 0.55860006809234619 0.98137080669403076
vt 0.55126327276229858 0.9208984375
vt 0.55126327276229858 0.98137080669403076
vt 0.54392647743225098 0.9208984375
vt 0.54392647743225098 0.98137080669403076
vt 0.5365898609161377 0.9208984375
vt 0.5365898609161377 0.98137080669403076
vt 0.52925324440002441 0.9208984375
vt 0.52925324440002441 0.98137080669403076
vt 0.52191632986068726 0.9208984375
vt 0.52191632986068726 0.98137080669403076
vt 0.5145796537399292 0.9208984375
vt 0.5145796537399292 0.98137080669403076
vt 0.50724309682846069 0.9208984375
vt 0.50724309682846069 0.98137080669403076
vt 0.49990618228912354 0.9208984375
vt 0.49990618228912354 0.98137080669403076
vt 0.49256962537765503 0.9208984375
vt 0.49256962537765503 0.98137080669403076
vt 0.48523277044296265 0.9208984375
vt 0.48523277044296265 0.98137080669403076
vt 0.47789591550827026 0.9208984375
vt 0.47789591550827026 0.98137080669403076
vt 0.47055917978286743 0.9208984375
vt 0.47055917978286743 0.98137080669403076
vt 0.46322247385978699 0.9208984375
vt 0.46322247385978699 0.98137080669403076
vt 0.45588567852973938 0.9208984375
vt 0.45588567852973938 0.98137080669403076
vt 0.44854894280433655 0.9208984375
vt 0.44854894280433655 0.98137080669403076
vt 0.44121220707893372 0.9208984375
vt 0.44121220707893372 0.98137080669403076
vt 0.43387553095817566 0.9208984375
vt 0.43387553095817566 0.98137080669403076
vt 0.42653876543045044 0.9208984375
vt 0.42653876543045044 0.98137080669403076
vt 0.41920205950737 0.9208984375
vt 0.41920205950737 0.98137080669403076
vt 0.411865234375 0.9208984375
vt 0.411865234375 0.98137080669403076
vt 0.40452855825424194 0.9208984375
vt 0.40452855825424194 0.98137080669403076
vt 0.39719182252883911 0.9208984375
vt 0.39719182252883911 0.98137080669403076
vt 0.38985511660575867 0.9208984375
vt 0.38985511660575867 0.98137080669403076
vt 0.38251838088035583 0.9208984375
vt 0.38251838088035583 0.98137080669403076
vt 0.37518167495727539 0.9208984375
vt 0.37518167495727539 0.98137080669403076
vt 0.36784493923187256 0.9208984375
vt 0.36784493923187256 0.98137080669403076
vt 0.36050817370414734 0.9208984375
vt 0.36050817370414734 0.98137080669403076
vt 0.35317146778106689 0.9208984375
vt 0.35317146778106689 0.98137080669403076
vt 0.34583476185798645 0.9208984375
vt 0.34583476185798645 0.98137080669403076
vt 0.33849796652793884 0.9208984375
vt 0.33849796652793884 0.98137080669403076
vt 0.33116132020950317 0.9208984375
vt 0.33116132020950317 0.98137080669403076
vt 0.32382449507713318 0.9208984375
vt 0.32382449507713318 0.98137080669403076
vt 0.31648784875869751 0.9208984375
vt 0.31648784875869751 0.98137080669403076
vt 0.3091510534286499 0.9208984375
vt 0.3091510534286499 0.98137080669403076
vt 0.30181437730789185 0.9208984375
vt 0.30181437730789185 0.98137080669403076
vt 0.29447761178016663 0.9208984375
vt 0.29447761178016663 0.98137080669403076
vt 0.28714087605476379 0.9208984375
vt 0.28714087605476379 0.98137080669403076
vt 0.27980422973632812 0.9208984375
vt 0.27980422973632812 0.98137080669403076
vt 0.27246749401092529 0.9208984375
vt 0.27246749401092529 0.98137080669403076
vt 0.26513075828552246 0.9208984375
vt 0.26513075828552246 0.98137080669403076
vt 0.25779402256011963 0.9208984375
vt 0.25779402256011963 0.98137080669403076
vt 0.25045737624168396 0.9208984375
vt 0.25045737624168396 0.98137080669403076
vt 0.24312074482440948 0.9208984375
vt 0.24312074482440948 0.98137080669403076
vt 0.23578403890132904 0.9208984375
vt 0.23578403890132904 0.98137080669403076
vt 0.22844724357128143 0.9208984375
vt 0.22844724357128143 0.98137080669403076
vt 0.22111053764820099 0.9208984375
vt 0.22111053764820099 0.98137080669403076
vt 0.21377383172512054 0.9208984375
vt 0.21377383172512054 0.98137080669403076
vt 0.20643703639507294 0.9208984375
vt 0.20643703639507294 0.98137080669403076
vt 0.19910033047199249 0.9208984375
vt 0.19910033047199249 0.98137080669403076
vt 0.19176359474658966 0.9208984375
vt 0.19176359474658966 0.98137080669403076
vt 0.1844269186258316 0.9208984375
vt 0.1844269186258316 0.98137080669403076
vt 0.17709015309810638 0.9208984375
vt 0.17709015309810638 0.98137080669403076
vn 0.52948844432830811 0 -0.84831714630126953
vn 0.52948844432830811 0 -0.84831714630126953
vn 0.46461308002471924 0 -0.8855137825012207
vn 0.46461308002471924 0 -0.8855137825012207
vn 0.39713940024375916 0 -0.9177582859992981
vn 0.39713940024375916 0 -0.9177582859992981
vn 0.32744476199150085 0 -0.94487035274505615
vn 0.32744476199150085 0 -0.94487035274505615
vn 0.25591892004013062 0 -0.96669822931289673
vn 0.25591892004013062 0 -0.96669822931289673
vn 0.18296186625957489 0 -0.98312002420425415
vn 0.18296186625957489 0 -0.98312002420425415
vn 0.10898160934448242 0 -0.99404376745223999
vn 0.10898160934448242 0 -0.99404376745223999
vn 0.034391891211271286 0 -0.99940842390060425
vn 0.034391891211271286 0 -0.99940842390060425
vn -0.04039015993475914 0 -0.9991840124130249
vn -0.04039015993475914 0 -0.9991840124130249
vn -0.11494633555412292 0 -0.99337172508239746
vn -0.11494633555412292 0 -0.99337172508239746
vn -0.18885968625545502 0 -0.98200410604476929
vn -0.18885968625545502 0 -0.98200410604476929
vn -0.26171684265136719 0 -0.96514469385147095
vn -0.26171684265136719 0 -0.96514469385147095
vn -0.33311039209365845 0 -0.94288784265518188
vn -0.33311039209365845 0 -0.94288784265518188
vn -0.40264102816581726 0 -0.91535794734954834
vn -0.40264102816581726 0 -0.91535794734954834
vn -0.46991994976997375 0 -0.88270902633666992
vn -0.46991994976997375 0 -0.88270902633666992
vn -0.53457087278366089 0 -0.84512364864349365
vn -0.53457087278366089 0 -0.84512364864349365
vn -0.59623229503631592 0 -0.80281198024749756
vn -0.59623229503631592 0 -0.80281198024749756
vn -0.65455931425094604 0 -0.75601065158843994
vn -0.65455931425094604 0 -0.75601065158843994
vn -0.70922577381134033 0 -0.70498138666152954
vn -0.70922577381134033 0 -0.70498138666152954
vn -0.7599259614944458 0 -0.6500096321105957
vn -0.7599259614944458 0 -0.6500096321105957
vn -0.80637633800506592 0 -0.59140270948410034
vn -0.80637633800506592 0 -0.59140270948410034
vn -0.84831714630126953 0 -0.52948844432830811
vn -0.84831714630126953 0 -0.52948844432830811
vn -0.8855137825012207 0 -0.46461308002471924
vn -0.8855137825012207 0 -0.46461308002471924
vn -0.9177582859992981 0 -0.39713940024375916
vn -0.9177582859992981 0 -0.39713940024375916
vn -0.94487035274505615 0 -0.32744476199150085
vn -0.94487035274505615 0 -0.32744476199150085
vn -0.96669822931289673 0 -0.25591892004013062
vn -0.96669822931289673 0 -0.25591892004013062
vn -0.98312002420425415 0 -0.18296186625957489
vn -0.98312002420425415 0 -0.18296186625957489
vn -0.99404376745223999 0 -0.10898160934448242
vn -0.99404376745223999 0 -0.10898160934448242
vn -0.99940842390060425 0 -0.034391891211271286
vn -0.99940842390060425 0 -0.034391891211271286
vn -0.9991840124130249 0 0.04039015993475914
vn -0.9991840124130249 0 0.04039015993475914
vn -0.99337172508239746 0 0.11494633555412292
vn -0.99337172508239746 0 0.11494633555412292
vn -0.98200410604476929 0 0.18885968625545502
vn -0.98200410604476929 0 0.18885968625545502
vn -0.96514469385147095 0 0.26171684265136719
vn -0.96514469385147095 0 0.26171684265136719
vn -0.94288784265518188 0 0.33311039209365845
vn -0.94288784265518188 0 0.33311039209365845
vn -0.91535794734954834 0 0.40264102816581726
vn -0.91535794734954834 0 0.40264102816581726
vn -0.88270902633666992 0 0.46991994976997375
vn -0.88270902633666992 0 0.46991994976997375
vn -0.84512364864349365 0 0.53457087278366089
vn -0.84512364864349365 0 0.53457087278366089
vn -0.80281198024749756 0 0.59623229503631592
vn -0.80281198024749756 0 0.59623229503631592
vn -0.75601065158843994 0 0.65455931425094604
vn -0.75601065158843994 0 0.65455931425094604
vn -0.70498138666152954 0 0.70922577381134033
vn -0.70498138666152954 0 0.70922577381134033
vn -0.6500096321105957 0 0.7599259614944458
vn -0.6500096321105957 0 0.7599259614944458
vn -0.59140270948410034 0 0.80637633800506592
vn -0.59140270948410034 0 0.80637633800506592
vn -0.52948844432830811 0 0.84831714630126953
vn -0.52948844432830811 0 0.84831714630126953
vn -0.46461308002471924 0 0.8855137825012207
vn -0.46461308002471924 0 0.8855137825012207
vn -0.39713940024375916 0 0.9177582859992981
vn -0.39713940024375916 0 0.9177582859992981
vn -0.32744476199150085 0 0.94487035274505615
vn -0.32744476199150085 0 0.94487035274505615
vn -0.25591892004013062 0 0.96669822931289673
vn -0.25591892004013062 0 0.96669822931289673
vn -0.18296186625957489 0 0.98312002420425415
vn -0.18296186625957489 0 0.98312002420425415
vn -0.10898160934448242 0 0.99404376745223999
vn -0.10898160934448242 0 0.99404376745223999
vn -0.034391891211271286 0 0.99940842390060425
vn -0.034391891211271286 0 0.99940842390060425
vn 0.04039015993475914 0 0.9991840124130249
vn 0.04039015993475914 0 0.9991840124130249
vn 0.11494633555412292 0 0.99337172508239746
vn 0.11494633555412292 0 0.99337172508239746
vn 0.18885968625545502 0 0.98200410604476929
vn 0.18885968625545502 0 0.98200410604476929
vn 0.26171684265136719 0 0.96514469385147095
vn 0.26171684265136719 0 0.96514469385147095
vn 0.33311039209365845 0 0.94288784265518188
vn 0.33311039209365845 0 0.94288784265518188
vn 0.40264102816581726 0 0.91535794734954834
vn 0.40264102816581726 0 0.91535794734954834
vn 0.46991994976997375 0 0.88270902633666992
vn 0.46991994976997375 0 0.88270902633666992
vn 0.53457087278366089 0 0.84512364864349365
vn 0.53457087278366089 0 0.84512364864349365
vn 0.59623229503631592 0 0.80281198024749756
vn 0.59623229503631592 0 0.80281198024749756
vn 0.65455931425094604 0 0.75601065158843994
vn 0.65455931425094604 0 0.75601065158843994
vn 0.70922577381134033 0 0.70498138666152954
vn 0.70922577381134033 0 0.70498138666152954
vn 0.7599259614944458 0 0.6500096321105957
vn 0.7599259614944458 0 0.6500096321105957
vn 0.80637633800506592 0 0.59140270948410034
vn 0.80637633800506592 0 0.59140270948410034
vn 0.84831714630126953 0 0.52948844432830811
vn 0.84831714630126953 0 0.52948844432830811
vn 0.8855137825012207 0 0.46461308002471924
vn 0.8855137825012207 0 0.46461308002471924
vn 0.9177582859992981 0 0.39713940024375916
vn 0.9177582859992981 0 0.39713940024375916
vn 0.94487035274505615 0 0.32744476199150085
vn 0.94487035274505615 0 0.32744476199150085
vn 0.96669822931289673 0 0.25591892004013062
vn 0.96669822931289673 0 0.25591892004013062
vn 0.98312002420425415 0 0.18296186625957489
vn 0.98312002420425415 0 0.18296186625957489
vn 0.99404376745223999 0 0.10898160934448242
vn 0.99404376745223999 0 0.10898160934448242
vn 0.99940842390060425 0 0.034391891211271286
vn 0.99940842390060425 0 0.034391891211271286
vn 0.9991840124130249 0 -0.04039015993475914
vn 0.9991840124130249 0 -0.04039015993475914
vn 0.99337172508239746 0 -0.11494633555412292
vn 0.99337172508239746 0 -0.11494633555412292
vn 0.98200410604476929 0 -0.18885968625545502
vn 0.98200410604476929 0 -0.18885968625545502
vn 0.96514469385147095 0 -0.26171684265136719
vn 0.96514469385147095 0 -0.26171684265136719
vn 0.94288784265518188 0 -0.33311039209365845
vn 0.94288784265518188 0 -0.33311039209365845
vn 0.91535794734954834 0 -0.40264102816581726
vn 0.91535794734954834 0 -0.40264102816581726
vn 0.88270902633666992 0 -0.46991994976997375
vn 0.88270902633666992 0 -0.46991994976997375
vn 0.84512364864349365 0 -0.53457087278366089
vn 0.84512364864349365 0 -0.53457087278366089
vn 0.80281198024749756 0 -0.59623229503631592
vn 0.80281198024749756 0 -0.59623229503631592
vn 0.75601065158843994 0 -0.65455931425094604
vn 0.75601065158843994 0 -0.65455931425094604
vn 0.70498138666152954 0 -0.70922577381134033
vn 0.70498138666152954 0 -0.70922577381134033
vn 0.6500096321105957 0 -0.7599259614944458
vn 0.6500096321105957 0 -0.7599259614944458
vn 0.59140270948410034 0 -0.80637633800506592
vn 0.59140270948410034 0 -0.80637633800506592
vn 0.52948844432830811 0 -0.84831714630126953
vn 0.52948844432830811 0 -0.84831714630126953
f 1/1/1 3/3/3 4/4/4 2/2/2
f 3/3/3 5/5/5 6/6/6 4/4/4
f 5/5/5 7/7/7 8/8/8 6/6/6
f 7/7/7 9/9/9 10/10/10 8/8/8
f 9/9/9 11/11/11 12/12/12 10/10/10
f 11/11/11 13/13/13 14/14/14 12/12/12
f 13/13/13 15/15/15 16/16/16 14/14/14
f 15/15/15 17/17/17 18/18/18 16/16/16
f 17/17/17 19/19/19 20/20/20 18/18/18
f 19/19/19 21/21/21 22/22/22 20/20/20
f 21/21/21 23/23/23 24/24/24 22/22/22
f 23/23/23 25/25/25 26/26/26 24/24/24
f 25/25/25 27/27/27 28/28/28 26/26/26
f 27/27/27 29/29/29 30/30/30 28/28/28
f 29/29/29 31/31/31 32/32/32 30/30/30
f 31/31/31 33/33/33 34/34/34 32/32/32
f 33/33/33 35/35/35 36/36/36 34/34/34
f 35/35/35 37/37/37 38/38/38 36/36/36
f 37/37/37 39/39/39 40/40/40 38/38/38
f 39/39/39 41/41/41 42/42/42 40/40/40
f 41/41/41 43/43/43 44/44/44 42/42/42
f 43/43/43 45/45/45 46/46/46 44/44/44
f 45/45/45 47/47/47 48/48/48 46/46/46
f 47/47/47 49/49/49 50/50/50 48/48/48
f 49/49/49 51/51/51 52/52/52 50/50/50
f 51/51/51 53/53/53 54/54/54 52/52/52
f 53/53/53 55/55/55 56/56/56 54/54/54
f 55/55/55 57/57/57 58/58/58 56/56/56
f 57/57/57 59/59/59 60/60/60 58/58/58
f 59/59/59 61/61/61 62/62/62 60/60/60
f 61/61/61 63/63/63 64/64/64 62/62/62
f 63/63/63 65/65/65 66/66/66 64/64/64
f 65/65/65 67/67/67 68/68/68 66/66/66
f 67/67/67 69/69/69 70/70/70 68/68/68
f 69/69/69 71/71/71 72/72/72 70/70/70
f 71/71/71 73/73/73 74/74/74 72/72/72
f 73/73/73 75/75/75 76/76/76 74/74/74
f 75/75/75 77/77/77 78/78/78 76/76/76
f 77/77/77 79/79/79 80/80/80 78/78/78
f 79/79/79 81/81/81 82/82/82 80/80/80
f 81/81/81 83/83/83 84/84/84 82/82/82
f 83/83/83 85/85/85 86/86/86 84/84/84
f 85/85/85 87/87/87 88/88/88 86/86/86
f 87/87/87 89/89/89 90/90/90 88/88/88
f 89/89/89 91/91/91 92/92/92 90/90/90
f 91/91/91 93/93/93 94/94/94 92/92/92
f 93/93/93 95/95/95 96/96/96 94/94/94
f 95/95/95 97/97/97 98/98/98 96/96/96
f 97/97/97 99/99/99 100/100/100 98/98/98
f 99/99/99 101/101/101 102/102/102 100/100/100
f 101/101/101 103/103/103 104/104/104 102/102/102
f 103/103/103 105/105/105 106/106/106 104/104/104
f 105/105/105 107/107/107 108/108/108 106/106/106
f 107/107/107 109/109/109 110/110/110 108/108/108
f 109/109/109 111/111/111 112/112/112 110/110/110
f 111/111/111 113/113/113 114/114/114 112/112/112
f 113/113/113 115/115/115 116/116/116 114/114/114
f 115/115/115 117/117/117 118/118/118 116/116/116
f 117/117/117 119/119/119 120/120/120 118/118/118
f 119/119/119 121/121/121 122/122/122 120/120/120
f 121/121/121 123/123/123 124/124/124 122/122/122
f 123/123/123 125/125/125 126/126/126 124/124/124
f 125/125/125 127/127/127 128/128/128 126/126/126
f 127/127/127 129/129/129 130/130/130 128/128/128
f 129/129/129 131/131/131 132/132/132 130/130/130
f 131/131/131 133/133/133 134/134/134 132/132/132
f 133/133/133 135/135/135 136/136/136 134/134/134
f 135/135/135 137/137/137 138/138/138 136/136/136
f 137/137/137 139/139/139 140/140/140 138/138/138
f 139/139/139 141/141/141 142/142/142 140/140/140
f 141/141/141 143/143/143 144/144/144 142/142/142
f 143/143/143 145/145/145 146/146/146 144/144/144
f 145/145/145 147/147/147 148/148/148 146/146/146
f 147/147/147 149/149/149 150/150/150 148/148/148
f 149/149/149 151/151/151 152/152/152 150/150/150
f 151/151/151 153/153/153 154/154/154 152/152/152
f 153/153/153 155/155/155 156/156/156 154/154/154
f 155/155/155 157/157/157 158/158/158 156/156/156
f 157/157/157 159/159/159 160/160/160 158/158/158
f 159/159/159 161/161/161 162/162/162 160/160/160
f 161/161/161 163/163/163 164/164/164 162/162/162
f 163/163/163 165/165/165 166/166/166 164/164/164
f 165/165/165 167/167/167 168/168/168 166/166/166
f 167/167/167 1/169/169 2/170/170 168/168/168
