# Rhino

mtllib B30.mtl
usemtl B30
v -81.807762145996094 15 805.34912109375
v -81.807762145996094 58.316665649414062 805.34912109375
v -94.807762145996094 15 805.34912109375
v -94.807762145996094 58.316665649414062 805.34912109375
vt 0.59052401781082153 0.74369412660598755
vt 0.59052401781082153 0.9543578028678894
vt 0.65660595893859863 0.74369412660598755
vt 0.65660595893859863 0.9543578028678894
vn 0 0 -1
vn 0 0 -1
vn 0 0 -1
vn 0 0 -1
f 2/2/2 1/1/1 3/3/3 4/4/4
usemtl B30
v -94.807762145996094 15 805.34912109375
v -94.807762145996094 58.316665649414062 805.34912109375
v -94.807762145996094 15 821.34912109375
v -94.807762145996094 58.316665649414062 821.34912109375
vt 0.74679166078567505 0.74369412660598755
vt 0.74679166078567505 0.9543578028678894
vt 0.82812297344207764 0.74369412660598755
vt 0.82812297344207764 0.9543578028678894
vn -1 0 0
vn -1 0 0
vn -1 0 0
vn -1 0 0
f 6/6/6 5/5/5 7/7/7 8/8/8
usemtl B30
v -81.807762145996094 15 821.34912109375
v -81.807762145996094 58.316665649414062 821.34912109375
v -81.807762145996094 15 805.34912109375
v -81.807762145996094 58.316665649414062 805.34912109375
vt 0.66106539964675903 0.74369412660598755
vt 0.66106539964675903 0.9543578028678894
vt 0.7423967719078064 0.74369412660598755
vt 0.7423967719078064 0.9543578028678894
vn 1 0 0
vn 1 0 0
vn 1 0 0
vn 1 0 0
f 10/10/10 9/9/9 11/11/11 12/12/12
usemtl B30
v -81.807762145996094 58.316665649414062 805.34912109375
v -81.807762145996094 58.316665649414062 821.34912109375
v -94.807762145996094 58.316665649414062 805.34912109375
v -94.807762145996094 58.316665649414062 821.34912109375
vt 0.44587844610214233 0.74331492185592651
vt 0.44587844610214233 0.83971494436264038
vt 0.54066604375839233 0.74331492185592651
vt 0.54066604375839233 0.83971494436264038
vn 0 1 0
vn 0 1 0
vn 0 1 0
vn 0 1 0
f 14/14/14 13/13/13 15/15/15 16/16/16
usemtl B30
v -58.307762145996094 45 821.34912109375
v -58.307762145996094 45 1016.34912109375
v -88.307762145996094 62 821.34912109375
v -88.307762145996094 62 1016.34912109375
v -81.807762145996094 58.316665649414062 821.34912109375
vt 0.97086483240127563 0.35078901052474976
vt 0.027982205152511597 0.35078901052474976
vt 0.97086483240127563 0.47315528988838196
vt 0.027982205152511597 0.47315528988838196
vt 0.97086483240127563 0.44664260745048523
vn 0.49301257729530334 0.87002217769622803 0
vn 0.49301257729530334 0.87002217769622803 0
vn 0.49301257729530334 0.87002217769622803 0
vn 0.49301257729530334 0.87002217769622803 0
vn 0.49301257729530334 0.87002217769622803 0
f 17/17/17 21/21/21 20/20/20 18/18/18
f 20/20/20 21/21/21 19/19/19
usemtl B30
v -88.307762145996094 62 821.34912109375
v -88.307762145996094 62 1016.34912109375
v -118.30775451660156 45 821.34912109375
v -118.30775451660156 45 1016.34912109375
v -94.807762145996094 58.316665649414062 821.34912109375
vt 0.027982369065284729 0.47315528988838196
vt 0.97086507081985474 0.47315528988838196
vt 0.027982369065284729 0.35078904032707214
vt 0.97086507081985474 0.35078904032707214
vt 0.027982369065284729 0.44664260745048523
vn -0.49301257729530334 0.87002217769622803 0
vn -0.49301257729530334 0.87002217769622803 0
vn -0.49301257729530334 0.87002217769622803 0
vn -0.49301257729530334 0.87002217769622803 0
vn -0.49301257729530334 0.87002217769622803 0
f 26/26/26 23/23/23 22/22/22
f 26/26/26 24/24/24 25/25/25 23/23/23
usemtl B30
v -118.30775451660156 15 821.34912109375
v -118.30775451660156 45 821.34912109375
v -118.30775451660156 15 1016.34912109375
v -118.30775451660156 45 1016.34912109375
vt 0.02793528325855732 0.56946003437042236
vt 0.02793528325855732 0.71760773658752441
vt 0.97212511301040649 0.56946003437042236
vt 0.97212511301040649 0.71760773658752441
vn -1 0 0
vn -1 0 0
vn -1 0 0
vn -1 0 0
f 28/28/28 27/27/27 29/29/29 30/30/30
usemtl B30
v -58.307762145996094 15 1016.34912109375
v -58.307762145996094 45 1016.34912109375
v -58.307762145996094 15 821.34912109375
v -58.307762145996094 45 821.34912109375
vt 0.027935069054365158 0.56946003437042236
vt 0.027935069054365158 0.71760773658752441
vt 0.97212487459182739 0.56946003437042236
vt 0.97212487459182739 0.71760773658752441
vn 1 0 0
vn 1 0 0
vn 1 0 0
vn 1 0 0
f 32/32/32 31/31/31 33/33/33 34/34/34
usemtl B30
v -81.807762145996094 58.316665649414062 821.34912109375
v -94.807762145996094 58.316665649414062 821.34912109375
v -88.307762145996094 62 821.34912109375
vt 0.21118894219398499 0.96153414249420166
vt 0.14510701596736908 0.96153414249420166
vt 0.17814794182777405 0.98025733232498169
vn 0 0 -1
vn 0 0 -1
vn 0 0 -1
f 36/36/36 37/37/37 35/35/35
usemtl B30
v -58.307762145996094 15 1016.34912109375
v -118.30775451660156 15 1016.34912109375
v -58.307762145996094 45 1016.34912109375
v -88.307762145996094 62 1016.34912109375
v -118.30775451660156 45 1016.34912109375
vt 0.33064472675323486 0.74324452877044678
vt 0.025651181116700172 0.74324452877044678
vt 0.33064472675323486 0.89452934265136719
vt 0.17814794182777405 0.98025733232498169
vt 0.025651181116700172 0.89452934265136719
vn 0 0 1
vn 0 0 1
vn 0 0 1
vn 0 0 1
vn 0 0 1
f 38/38/38 40/40/40 42/42/42 39/39/39
f 41/41/41 42/42/42 40/40/40
usemtl B30
v -58.307762145996094 15 821.34912109375
v -81.807762145996094 58.316665649414062 821.34912109375
v -81.807762145996094 15 821.34912109375
v -58.307762145996094 45 821.34912109375
vt 0.33064472675323486 0.74324452877044678
vt 0.21402193605899811 0.96168285608291626
vt 0.21402193605899811 0.74324452877044678
vt 0.33064472675323486 0.89452934265136719
vn 0 0 -1
vn 0 0 -1
vn 0 0 -1
vn 0 0 -1
f 43/43/43 45/45/45 44/44/44 46/46/46
usemtl B30
v -94.807762145996094 58.316665649414062 821.34912109375
v -94.807762145996094 15 821.34912109375
v -118.30775451660156 15 821.34912109375
v -118.30775451660156 45 821.34912109375
vt 0.14320813119411469 0.96166104078292847
vt 0.14320813119411469 0.74324452877044678
vt 0.026597108691930771 0.74324452877044678
vt 0.026597108691930771 0.89451420307159424
vn 0 0 -1
vn 0 0 -1
vn 0 0 -1
vn 0 0 -1
f 48/48/48 49/49/49 50/50/50 47/47/47
usemtl B30
v -58.307762145996094 15 1016.34912109375
v -118.30775451660156 15 1016.34912109375
v -81.807762145996094 15 805.34912109375
v -94.807762145996094 15 805.34912109375
v -94.807762145996094 15 821.34912109375
v -81.807762145996094 15 821.34912109375
v -58.307762145996094 15 821.34912109375
v -118.30775451660156 15 821.34912109375
vt 0.49096524715423584 0.83017712831497192
vt 0.51397252082824707 0.83017712831497192
vt 0.49997639656066895 0.74876135587692261
vt 0.50496137142181396 0.74876135587692261
vt 0.50496137142181396 0.75493502616882324
vt 0.49997639656066895 0.75493502616882324
vt 0.49096524715423584 0.75493502616882324
vt 0.51397252082824707 0.75493502616882324
vn 0 -1 0
vn 0 -1 0
vn 0 -1 0
vn 0 -1 0
vn 0 -1 0
vn 0 -1 0
vn 0 -1 0
vn 0 -1 0
f 52/52/52 55/55/55 56/56/56 51/51/51
f 57/57/57 51/51/51 56/56/56
f 56/56/56 55/55/55 54/54/54 53/53/53
f 55/55/55 52/52/52 58/58/58
