# Rhino

mtllib B128.mtl
usemtl B128
v -179.6068115234375 15 814.85076904296875
v -411.0780029296875 15 546.22332763671875
v -279.9251708984375 15 901.293212890625
v -511.3963623046875 15 632.665771484375
v -279.9251708984375 51 901.293212890625
v -511.3963623046875 51 632.665771484375
v -258.17431640625 65 882.5509033203125
v -489.6455078125 65 613.9234619140625
v -258.17431640625 85 882.5509033203125
v -489.6455078125 85 613.9234619140625
v -229.7659912109375 103 858.072021484375
v -461.2371826171875 103 589.44451904296875
v -201.35768127441406 85 833.59307861328125
v -432.828857421875 85 564.96563720703125
v -201.35768127441406 65 833.59307861328125
v -432.828857421875 65 564.96563720703125
v -179.6068115234375 51 814.85076904296875
v -411.0780029296875 51 546.22332763671875
vt -0.28012955188751221 0.32006785273551941
vt -0.28012955188751221 0.64941626787185669
vt -0.14657978713512421 0.32006782293319702
vt -0.14657977223396301 0.64941626787185669
vt 0.95708358287811279 0.45362654328346252
vt 0.60377579927444458 0.45362654328346252
vt 0.95708358287811279 0.48972168564796448
vt 0.60377579927444458 0.48972168564796448
vt 0.096951454877853394 0.41648077964782715
vt 0.096951447427272797 0.74582922458648682
vt 0.12916631996631622 0.41648077964782715
vt 0.12916631996631622 0.74582922458648682
vt 0.95708358287811279 0.50500327348709106
vt 0.60377579927444458 0.50500327348709106
vt 0.95708358287811279 0.52332711219787598
vt 0.60377579927444458 0.52332711219787598
vt 0.21798036992549896 0.53516137599945068
vt 0.21798035502433777 0.86450982093811035
vt 0.25993034243583679 0.53516137599945068
vt 0.25993034243583679 0.86450982093811035
vt 0.26807305216789246 0.53516137599945068
vt 0.26807308197021484 0.86450982093811035
vt 0.3100229799747467 0.53516137599945068
vt 0.3100229799747467 0.86450982093811035
vt 0.60377579927444458 0.62092375755310059
vt 0.95708358287811279 0.62092375755310059
vt 0.60377579927444458 0.60259991884231567
vt 0.95708358287811279 0.60259991884231567
vt 0.15653039515018463 0.41648080945014954
vt 0.15653038024902344 0.74582922458648682
vt 0.18874531984329224 0.41648080945014954
vt 0.18874531984329224 0.74582922458648682
vt 0.60377579927444458 0.58773821592330933
vt 0.95708358287811279 0.58773821592330933
vt 0.60377579927444458 0.55164307355880737
vt 0.95708358287811279 0.55164307355880737
vt 0.48207205533981323 0.23929248750209808
vt 0.34852227568626404 0.23929248750209808
vt 0.34852227568626404 0.2753276526927948
vt 0.37747836112976074 0.28934130072593689
vt 0.37747836112976074 0.30936083197593689
vt 0.41529718041419983 0.32737842202186584
vt 0.4531160295009613 0.30936083197593689
vt 0.4531160295009613 0.28934130072593689
vt 0.48207205533981323 0.2753276526927948
vt 0.20029865205287933 0.23929248750209808
vt 0.33384841680526733 0.23929248750209808
vt 0.33384841680526733 0.2753276526927948
vt 0.30489236116409302 0.28934130072593689
vt 0.30489236116409302 0.30936083197593689
vt 0.26707348227500916 0.32737842202186584
vt 0.22925467789173126 0.30936089158058167
vt 0.22925467789173126 0.28934136033058167
vt 0.20029865205287933 0.27532768249511719
vn 0 -1 0
vn 0 -1 0
vn 0 -1 0
vn 0 -1 0
vn -0.75755530595779419 0 0.65277099609375
vn -0.75755530595779419 0 0.65277099609375
vn -0.75755530595779419 0 0.65277099609375
vn -0.75755530595779419 0 0.65277099609375
vn -0.33201882243156433 0.89884012937545776 0.2860943078994751
vn -0.33201882243156433 0.89884012937545776 0.2860943078994751
vn -0.33201882243156433 0.89884012937545776 0.2860943078994751
vn -0.33201882243156433 0.89884012937545776 0.2860943078994751
vn -0.75755530595779419 0 0.65277099609375
vn -0.75755530595779419 0 0.65277099609375
vn -0.75755530595779419 0 0.65277099609375
vn -0.75755530595779419 0 0.65277099609375
vn -0.32781770825386047 0.90152305364608765 0.28247427940368652
vn -0.32781770825386047 0.90152305364608765 0.28247427940368652
vn -0.32781770825386047 0.90152305364608765 0.28247427940368652
vn -0.32781770825386047 0.90152305364608765 0.28247427940368652
vn 0.32781770825386047 0.90152305364608765 -0.28247427940368652
vn 0.32781770825386047 0.90152305364608765 -0.28247427940368652
vn 0.32781770825386047 0.90152305364608765 -0.28247427940368652
vn 0.32781770825386047 0.90152305364608765 -0.28247427940368652
vn 0.75755530595779419 0 -0.65277099609375
vn 0.75755530595779419 0 -0.65277099609375
vn 0.75755530595779419 0 -0.65277099609375
vn 0.75755530595779419 0 -0.65277099609375
vn 0.33201882243156433 0.89884012937545776 -0.2860943078994751
vn 0.33201882243156433 0.89884012937545776 -0.2860943078994751
vn 0.33201882243156433 0.89884012937545776 -0.2860943078994751
vn 0.33201882243156433 0.89884012937545776 -0.2860943078994751
vn 0.75755530595779419 0 -0.65277099609375
vn 0.75755530595779419 0 -0.65277099609375
vn 0.75755530595779419 0 -0.65277099609375
vn 0.75755530595779419 0 -0.65277099609375
vn 0.65277099609375 0 0.75755530595779419
vn 0.65277099609375 0 0.75755530595779419
vn 0.65277099609375 0 0.75755530595779419
vn 0.65277099609375 0 0.75755530595779419
vn 0.65277099609375 0 0.75755530595779419
vn 0.65277099609375 0 0.75755530595779419
vn 0.65277099609375 0 0.75755530595779419
vn 0.65277099609375 0 0.75755530595779419
vn 0.65277099609375 0 0.75755530595779419
vn -0.65277099609375 0 -0.75755530595779419
vn -0.65277099609375 0 -0.75755530595779419
vn -0.65277099609375 0 -0.75755530595779419
vn -0.65277099609375 0 -0.75755530595779419
vn -0.65277099609375 0 -0.75755530595779419
vn -0.65277099609375 0 -0.75755530595779419
vn -0.65277099609375 0 -0.75755530595779419
vn -0.65277099609375 0 -0.75755530595779419
vn -0.65277099609375 0 -0.75755530595779419
f 1/1/1 3/3/3 4/4/4 2/2/2
f 3/5/5 5/7/7 6/8/8 4/6/6
f 5/9/9 7/11/11 8/12/12 6/10/10
f 7/13/13 9/15/15 10/16/16 8/14/14
f 9/17/17 11/19/19 12/20/20 10/18/18
f 11/21/21 13/23/23 14/24/24 12/22/22
f 13/25/25 15/27/27 16/28/28 14/26/26
f 15/29/29 17/31/31 18/32/32 16/30/30
f 17/33/33 1/35/35 2/36/36 18/34/34
f 11/42/42 9/41/41 7/40/40
f 7/40/40 5/39/39 3/38/38
f 3/38/38 15/44/44 7/40/40
f 15/44/44 13/43/43 11/42/42
f 1/37/37 17/45/45 15/44/44
f 15/44/44 3/38/38 1/37/37
f 11/42/42 7/40/40 15/44/44
f 12/51/51 8/49/49 10/50/50
f 8/49/49 4/47/47 6/48/48
f 4/47/47 8/49/49 16/53/53
f 16/53/53 12/51/51 14/52/52
f 2/46/46 16/53/53 18/54/54
f 16/53/53 2/46/46 4/47/47
f 12/51/51 16/53/53 8/49/49
