# Rhino

mtllib B28.mtl
usemtl B28
v 19.341264724731445 15 313.94296264648438
v -395.17034912109375 15 671.1197509765625
v 19.341264724731445 50 313.94296264648438
v -395.17034912109375 50 671.1197509765625
v 3.0219898223876953 60 295.00408935546875
v -411.4896240234375 60 652.180908203125
v 3.0219898223876953 79 295.00408935546875
v -411.4896240234375 79 652.180908203125
v -13.297285079956055 92 276.06521606445312
v -427.80889892578125 92 633.24200439453125
v -29.616559982299805 79 257.1263427734375
v -444.128173828125 79 614.3031005859375
v -29.616559982299805 60 257.1263427734375
v -444.128173828125 60 614.3031005859375
v -45.935836791992188 50 238.18743896484375
v -460.44744873046875 50 595.3642578125
v -45.935836791992188 15 238.18743896484375
v -460.44744873046875 15 595.3642578125
vt 0.95585191249847412 0.75581294298171997
vt 0.41063275933265686 0.7558128833770752
vt 0.95585191249847412 0.79215693473815918
vt 0.41063275933265686 0.79215693473815918
vt 0.13108539581298828 0.95085668563842773
vt 0.13108539581298828 0.47755780816078186
vt 0.097540266811847687 0.95085668563842773
vt 0.097540281713008881 0.47755780816078186
vt 0.95716488361358643 0.70080459117889404
vt 0.41147264838218689 0.70080459117889404
vt 0.95716488361358643 0.71974122524261475
vt 0.41147264838218689 0.71974122524261475
vt 0.36688563227653503 0.89663249254226685
vt 0.36688563227653503 0.42333358526229858
vt 0.33178052306175232 0.89663249254226685
vt 0.33178052306175232 0.42333358526229858
vt 0.33126190304756165 0.42308127880096436
vt 0.33126190304756165 0.89638012647628784
vt 0.36636701226234436 0.42308127880096436
vt 0.36636701226234436 0.89638012647628784
vt 0.45210033655166626 0.93902468681335449
vt 0.99779260158538818 0.93902468681335449
vt 0.45210033655166626 0.92008805274963379
vt 0.99779260158538818 0.92008805274963379
vt 0.15629813075065613 0.47270995378494263
vt 0.15629814565181732 0.94600880146026611
vt 0.18984320759773254 0.47270995378494263
vt 0.18984319269657135 0.94600880146026611
vt 0.45191797614097595 0.91184741258621216
vt 0.99779260158538818 0.91184741258621216
vt 0.45191797614097595 0.87527531385421753
vt 0.99779260158538818 0.87527531385421753
vt -0.1405387669801712 0.39716142416000366
vt -0.14053875207901001 0.87046027183532715
vt -0.016268650069832802 0.39716142416000366
vt -0.016268646344542503 0.87046027183532715
vt 0.51522719860076904 0.23923435807228088
vt 0.51522719860076904 0.27431520819664001
vt 0.53966313600540161 0.28433826565742493
vt 0.53966313600540161 0.30338215827941895
vt 0.56409907341003418 0.31641221046447754
vt 0.58853501081466675 0.30338215827941895
vt 0.58853501081466675 0.28433826565742493
vt 0.61297094821929932 0.27431520819664001
vt 0.61297094821929932 0.23923435807228088
vt 0.61297094821929932 0.23923435807228088
vt 0.61297094821929932 0.27431520819664001
vt 0.58853501081466675 0.28433826565742493
vt 0.58853501081466675 0.30338215827941895
vt 0.56409907341003418 0.31641221046447754
vt 0.53966313600540161 0.30338215827941895
vt 0.53966313600540161 0.28433826565742493
vt 0.51522719860076904 0.27431520819664001
vt 0.51522719860076904 0.23923435807228088
vn 0.65277099609375 0 0.75755530595779419
vn 0.65277099609375 0 0.75755530595779419
vn 0.65277099609375 0 0.75755530595779419
vn 0.65277099609375 0 0.75755530595779419
vn 0.24243307113647461 0.92847669124603271 0.28134897351264954
vn 0.24243307113647461 0.92847669124603271 0.28134897351264954
vn 0.24243307113647461 0.92847669124603271 0.28134897351264954
vn 0.24243307113647461 0.92847669124603271 0.28134897351264954
vn 0.65277099609375 0 0.75755530595779419
vn 0.65277099609375 0 0.75755530595779419
vn 0.65277099609375 0 0.75755530595779419
vn 0.65277099609375 0 0.75755530595779419
vn 0.30115768313407898 0.88721680641174316 0.34950020909309387
vn 0.30115768313407898 0.88721680641174316 0.34950020909309387
vn 0.30115768313407898 0.88721680641174316 0.34950020909309387
vn 0.30115768313407898 0.88721680641174316 0.34950020909309387
vn -0.30115768313407898 0.88721680641174316 -0.34950020909309387
vn -0.30115768313407898 0.88721680641174316 -0.34950020909309387
vn -0.30115768313407898 0.88721680641174316 -0.34950020909309387
vn -0.30115768313407898 0.88721680641174316 -0.34950020909309387
vn -0.65277099609375 0 -0.75755530595779419
vn -0.65277099609375 0 -0.75755530595779419
vn -0.65277099609375 0 -0.75755530595779419
vn -0.65277099609375 0 -0.75755530595779419
vn -0.24243307113647461 0.92847669124603271 -0.28134897351264954
vn -0.24243307113647461 0.92847669124603271 -0.28134897351264954
vn -0.24243307113647461 0.92847669124603271 -0.28134897351264954
vn -0.24243307113647461 0.92847669124603271 -0.28134897351264954
vn -0.65277099609375 0 -0.75755530595779419
vn -0.65277099609375 0 -0.75755530595779419
vn -0.65277099609375 0 -0.75755530595779419
vn -0.65277099609375 0 -0.75755530595779419
vn 0 -1 0
vn 0 -1 0
vn 0 -1 0
vn 0 -1 0
vn 0.75755530595779419 0 -0.65277099609375
vn 0.75755530595779419 0 -0.65277099609375
vn 0.75755530595779419 0 -0.65277099609375
vn 0.75755530595779419 0 -0.65277099609375
vn 0.75755530595779419 0 -0.65277099609375
vn 0.75755530595779419 0 -0.65277099609375
vn 0.75755530595779419 0 -0.65277099609375
vn 0.75755530595779419 0 -0.65277099609375
vn 0.75755530595779419 0 -0.65277099609375
vn -0.75755530595779419 0 0.65277099609375
vn -0.75755530595779419 0 0.65277099609375
vn -0.75755530595779419 0 0.65277099609375
vn -0.75755530595779419 0 0.65277099609375
vn -0.75755530595779419 0 0.65277099609375
vn -0.75755530595779419 0 0.65277099609375
vn -0.75755530595779419 0 0.65277099609375
vn -0.75755530595779419 0 0.65277099609375
vn -0.75755530595779419 0 0.65277099609375
f 1/1/1 3/3/3 4/4/4 2/2/2
f 3/5/5 5/7/7 6/8/8 4/6/6
f 5/9/9 7/11/11 8/12/12 6/10/10
f 7/13/13 9/15/15 10/16/16 8/14/14
f 9/17/17 11/19/19 12/20/20 10/18/18
f 11/21/21 13/23/23 14/24/24 12/22/22
f 13/25/25 15/27/27 16/28/28 14/26/26
f 15/29/29 17/31/31 18/32/32 16/30/30
f 17/33/33 1/35/35 2/36/36 18/34/34
f 13/43/43 17/45/45 15/44/44
f 9/41/41 13/43/43 11/42/42
f 13/43/43 1/37/37 17/45/45
f 5/39/39 3/38/38 1/37/37
f 7/40/40 5/39/39 9/41/41
f 5/39/39 13/43/43 9/41/41
f 1/37/37 13/43/43 5/39/39
f 14/52/52 16/53/53 18/54/54
f 10/50/50 12/51/51 14/52/52
f 14/52/52 18/54/54 2/46/46
f 6/48/48 2/46/46 4/47/47
f 8/49/49 10/50/50 6/48/48
f 6/48/48 10/50/50 14/52/52
f 2/46/46 6/48/48 14/52/52
usemtl B28
v -266.95123291015625 15 613.14581298828125
v -204.00302124023438 15 558.904541015625
v -292.91796875 15 583.01080322265625
v -229.96977233886719 15 528.76953125
v -292.91796875 49 583.01080322265625
v -229.96977233886719 49 528.76953125
v -266.95123291015625 40 613.14581298828125
v -204.00302124023438 40 558.904541015625
vt 0.51113945245742798 0.56877970695495605
vt 0.51113945245742798 0.45991629362106323
vt 0.47110101580619812 0.56877964735031128
vt 0.47110101580619812 0.45991629362106323
vt 0.48208051919937134 0.57270091772079468
vt 0.48208051919937134 0.46383756399154663
vt 0.44785887002944946 0.57270091772079468
vt 0.44785887002944946 0.46383756399154663
vt 0.18288102746009827 0.52590721845626831
vt 0.18288102746009827 0.41704386472702026
vt 0.14183048903942108 0.52590727806091309
vt 0.14183048903942108 0.41704386472702026
vt 0.34281426668167114 0.37777805328369141
vt 0.42491233348846436 0.37777805328369141
vt 0.34281426668167114 0.3526151180267334
vt 0.42491233348846436 0.3526151180267334
vt 0.32484033703804016 0.35267436504364014
vt 0.28480187058448792 0.35267436504364014
vt 0.28480187058448792 0.38735541701316833
vt 0.32484033703804016 0.37817516922950745
vt 0.20074003934860229 0.35267436504364014
vt 0.24077853560447693 0.35267436504364014
vt 0.24077853560447693 0.38735541701316833
vt 0.20074003934860229 0.37817516922950745
vn 0 -1 0
vn 0 -1 0
vn 0 -1 0
vn 0 -1 0
vn -0.65277099609375 0 -0.75755530595779419
vn -0.65277099609375 0 -0.75755530595779419
vn -0.65277099609375 0 -0.75755530595779419
vn -0.65277099609375 0 -0.75755530595779419
vn 0.14404776692390442 0.97534823417663574 0.16717064380645752
vn 0.14404776692390442 0.97534823417663574 0.16717064380645752
vn 0.14404776692390442 0.97534823417663574 0.16717064380645752
vn 0.14404776692390442 0.97534823417663574 0.16717064380645752
vn 0.65277099609375 0 0.75755530595779419
vn 0.65277099609375 0 0.75755530595779419
vn 0.65277099609375 0 0.75755530595779419
vn 0.65277099609375 0 0.75755530595779419
vn -0.75755530595779419 0 0.65277099609375
vn -0.75755530595779419 0 0.65277099609375
vn -0.75755530595779419 0 0.65277099609375
vn -0.75755530595779419 0 0.65277099609375
vn 0.75755530595779419 0 -0.65277099609375
vn 0.75755530595779419 0 -0.65277099609375
vn 0.75755530595779419 0 -0.65277099609375
vn 0.75755530595779419 0 -0.65277099609375
f 19/55/55 21/57/57 22/58/58 20/56/56
f 21/59/59 23/61/61 24/62/62 22/60/60
f 23/63/63 25/65/65 26/66/66 24/64/64
f 25/67/67 19/69/69 20/70/70 26/68/68
f 21/72/72 19/71/71 25/74/74
f 25/74/74 23/73/73 21/72/72
f 22/76/76 26/78/78 20/75/75
f 26/78/78 22/76/76 24/77/77
