# Rhino

mtllib B63.mtl
usemtl B63
v -157.63233947753906 15 279.10830688476562
v -157.63233947753906 60 279.10830688476562
v -51.574680328369141 15 187.72027587890625
v -51.574680328369141 60 187.72027587890625
v -90.740982055664062 15 142.26698303222656
v -90.740982055664062 60 142.26698303222656
v -196.79864501953125 15 233.65501403808594
v -196.79864501953125 60 233.65501403808594
vt 0.036617010831832886 0.52371478080749512
vt 0.036617010831832886 0.71482759714126587
vt 0.62940329313278198 0.52371478080749512
vt 0.62940329313278198 0.71482759714126587
vt 0.72101908922195435 0.52251744270324707
vt 0.72101908922195435 0.71031028032302856
vt 0.98178863525390625 0.52251744270324707
vt 0.98178845643997192 0.71031028032302856
vt 0.036617010831832886 0.52371478080749512
vt 0.036617010831832886 0.71482759714126587
vt 0.62940329313278198 0.52371478080749512
vt 0.62940329313278198 0.71482759714126587
vt 0.72101908922195435 0.52251744270324707
vt 0.72101908922195435 0.71031028032302856
vt 0.98178845643997192 0.52251744270324707
vt 0.98178845643997192 0.71031028032302856
vt 0.67204761505126953 0.75659006834030151
vt 0.20457157492637634 0.75659006834030151
vt 0.20457157492637634 0.95693701505661011
vt 0.67204761505126953 0.95693701505661011
vt 0.029737420380115509 0.74377244710922241
vt 0.75919055938720703 0.74377244710922241
vt 0.75919055938720703 0.97004014253616333
vt 0.029737420380115509 0.97004014253616333
vn 0.65277165174484253 0 0.75755470991134644
vn 0.65277165174484253 0 0.75755470991134644
vn 0.65277165174484253 0 0.75755470991134644
vn 0.65277165174484253 0 0.75755470991134644
vn 0.75755470991134644 0 -0.65277165174484253
vn 0.75755470991134644 0 -0.65277165174484253
vn 0.75755470991134644 0 -0.65277165174484253
vn 0.75755470991134644 0 -0.65277165174484253
vn -0.65277165174484253 0 -0.75755470991134644
vn -0.65277165174484253 0 -0.75755470991134644
vn -0.65277165174484253 0 -0.75755470991134644
vn -0.65277165174484253 0 -0.75755470991134644
vn -0.75755470991134644 0 0.65277165174484253
vn -0.75755470991134644 0 0.65277165174484253
vn -0.75755470991134644 0 0.65277165174484253
vn -0.75755470991134644 0 0.65277165174484253
vn 0 -1 0
vn 0 -1 0
vn 0 -1 0
vn 0 -1 0
vn 0 1 0
vn 0 1 0
vn 0 1 0
vn 0 1 0
f 1/1/1 3/3/3 4/4/4 2/2/2
f 3/5/5 5/7/7 6/8/8 4/6/6
f 5/9/9 7/11/11 8/12/12 6/10/10
f 7/13/13 1/15/15 2/16/16 8/14/14
f 3/18/18 1/17/17 7/20/20
f 7/20/20 5/19/19 3/18/18
f 4/22/22 8/24/24 2/21/21
f 8/24/24 4/22/22 6/23/23
usemtl B63(4)
v -121.36308288574219 15 247.855712890625
v -121.36308288574219 27 247.855712890625
v -111.57151031494141 15 259.21902465820312
v -111.57151031494141 27 259.21902465820312
v -96.42041015625 15 246.16360473632812
v -96.42041015625 27 246.16360473632812
v -106.21199035644531 15 234.80027770996094
v -106.21199035644531 27 234.80027770996094
vt 0.043696809560060501 0.3205258846282959
vt 0.043696794658899307 0.38017457723617554
vt 0.11825758963823318 0.3205258846282959
vt 0.11825758963823318 0.38017454743385315
vt 0.19956210255622864 0.31449359655380249
vt 0.19956210255622864 0.36092987656593323
vt 0.27231612801551819 0.31449359655380249
vt 0.27231606841087341 0.36092987656593323
vt 0.12669163942337036 0.32100328803062439
vt 0.12669163942337036 0.37083587050437927
vt 0.18898235261440277 0.32100328803062439
vt 0.18898235261440277 0.37083584070205688
vt 0.26341375708580017 0.830893874168396
vt 0.26341378688812256 0.77011668682098389
vt 0.16211830079555511 0.830893874168396
vt 0.1621183305978775 0.77011668682098389
vt 0.1012987419962883 0.92555904388427734
vt 0.21785007417201996 0.92555904388427734
vt 0.21785017848014832 0.77015715837478638
vt 0.10129877179861069 0.77015715837478638
vt 0.45818480849266052 0.87613624334335327
vt 0.45818483829498291 0.7655411958694458
vt 0.60564500093460083 0.76554107666015625
vt 0.60564500093460083 0.87613624334335327
vn -0.75755470991134644 0 0.65277165174484253
vn -0.75755470991134644 0 0.65277165174484253
vn -0.75755470991134644 0 0.65277165174484253
vn -0.75755470991134644 0 0.65277165174484253
vn 0.65277165174484253 0 0.75755470991134644
vn 0.65277165174484253 0 0.75755470991134644
vn 0.65277165174484253 0 0.75755470991134644
vn 0.65277165174484253 0 0.75755470991134644
vn 0.75755470991134644 0 -0.65277165174484253
vn 0.75755470991134644 0 -0.65277165174484253
vn 0.75755470991134644 0 -0.65277165174484253
vn 0.75755470991134644 0 -0.65277165174484253
vn -0.65277165174484253 0 -0.75755470991134644
vn -0.65277165174484253 0 -0.75755470991134644
vn -0.65277165174484253 0 -0.75755470991134644
vn -0.65277165174484253 0 -0.75755470991134644
vn 0 -1 0
vn 0 -1 0
vn 0 -1 0
vn 0 -1 0
vn 0 1 0
vn 0 1 0
vn 0 1 0
vn 0 1 0
f 9/25/25 11/27/27 12/28/28 10/26/26
f 11/29/29 13/31/31 14/32/32 12/30/30
f 13/33/33 15/35/35 16/36/36 14/34/34
f 15/37/37 9/39/39 10/40/40 16/38/38
f 11/42/42 9/41/41 15/44/44
f 15/44/44 13/43/43 11/42/42
f 12/46/46 16/48/48 10/45/45
f 16/48/48 12/46/46 14/47/47
usemtl B63(4)
v -61.689094543457031 15 218.87631225585938
v -61.689094543457031 22 218.87631225585938
v -54.113548278808594 15 212.34858703613281
v -54.113548278808594 22 212.34858703613281
v -65.210662841796875 15 199.47016906738281
v -65.210662841796875 22 199.47016906738281
v -72.786209106445312 15 205.99787902832031
v -72.786209106445312 22 205.99787902832031
vt 0.062432706356048584 0.41596692800521851
vt 0.062432706356048584 0.50261855125427246
vt 0.18622088432312012 0.41596692800521851
vt 0.18622088432312012 0.50261855125427246
vt 0.29334726929664612 0.415975421667099
vt 0.29334729909896851 0.5013849139213562
vt 0.50077039003372192 0.415975421667099
vt 0.50077039003372192 0.5013849139213562
vt 0.70504385232925415 0.94945144653320312
vt 0.70504385232925415 0.74768674373626709
vt 0.41680812835693359 0.94945144653320312
vt 0.41680812835693359 0.74768674373626709
vt 0.29334726929664612 0.415975421667099
vt 0.29334726929664612 0.5013849139213562
vt 0.50077033042907715 0.415975421667099
vt 0.50077027082443237 0.5013849139213562
vt 0.084615737199783325 0.75771564245223999
vt 0.084615737199783325 0.95228534936904907
vt 0.41538426280021667 0.95228534936904907
vt 0.41538426280021667 0.75771564245223999
vt 0.75922340154647827 0.74445927143096924
vt 0.75922340154647827 0.96898579597473145
vt 0.37752825021743774 0.96898579597473145
vt 0.37752825021743774 0.74445927143096924
vn 0.65277165174484253 0 0.75755470991134644
vn 0.65277165174484253 0 0.75755470991134644
vn 0.65277165174484253 0 0.75755470991134644
vn 0.65277165174484253 0 0.75755470991134644
vn 0.75755470991134644 0 -0.65277165174484253
vn 0.75755470991134644 0 -0.65277165174484253
vn 0.75755470991134644 0 -0.65277165174484253
vn 0.75755470991134644 0 -0.65277165174484253
vn -0.65277165174484253 0 -0.75755470991134644
vn -0.65277165174484253 0 -0.75755470991134644
vn -0.65277165174484253 0 -0.75755470991134644
vn -0.65277165174484253 0 -0.75755470991134644
vn -0.75755470991134644 0 0.65277165174484253
vn -0.75755470991134644 0 0.65277165174484253
vn -0.75755470991134644 0 0.65277165174484253
vn -0.75755470991134644 0 0.65277165174484253
vn 0 -1 0
vn 0 -1 0
vn 0 -1 0
vn 0 -1 0
vn 0 1 0
vn 0 1 0
vn 0 1 0
vn 0 1 0
f 17/49/49 19/51/51 20/52/52 18/50/50
f 19/53/53 21/55/55 22/56/56 20/54/54
f 21/57/57 23/59/59 24/60/60 22/58/58
f 23/61/61 17/63/63 18/64/64 24/62/62
f 19/66/66 17/65/65 23/68/68
f 23/68/68 21/67/67 19/66/66
f 20/70/70 24/72/72 18/69/69
f 24/72/72 20/70/70 22/71/71
