# Rhino

mtllib B152.mtl
usemtl B152
v 23.289541244506836 14.749573707580566 864.58331298828125
v 23.289541244506836 49.74957275390625 864.58331298828125
v 53.289539337158203 14.749573707580566 864.58331298828125
v 53.289539337158203 49.74957275390625 864.58331298828125
v 53.289539337158203 14.749573707580566 804.58331298828125
v 53.289539337158203 49.74957275390625 804.58331298828125
v 23.289541244506836 14.749573707580566 804.58331298828125
v 23.289541244506836 49.74957275390625 804.58331298828125
vt 0.1252732127904892 0.015340322628617287
vt 0.125273197889328 0.13902539014816284
vt 0.24894930422306061 0.015340319834649563
vt 0.24894930422306061 0.13902537524700165
vt 0.21614392101764679 0.015340335667133331
vt 0.2161441296339035 0.13902539014816284
vt 0.43966126441955566 0.015340331010520458
vt 0.43966129422187805 0.13902528584003448
vt 0.43644857406616211 0.44782286882400513
vt 0.43644857406616211 0.570759117603302
vt 0.54182255268096924 0.44782286882400513
vt 0.54182255268096924 0.570759117603302
vt 0.21614404022693634 0.01534043624997139
vt 0.2161441296339035 0.13902536034584045
vt 0.43966120481491089 0.015340331010520458
vt 0.43966129422187805 0.13902528584003448
vt 0.12985579669475555 0.81464320421218872
vt 0.12985581159591675 0.93478715419769287
vt 0.37014365196228027 0.93478715419769287
vt 0.37014368176460266 0.81464320421218872
vt 0.46864226460456848 0.79982417821884155
vt 0.46864226460456848 0.94401401281356812
vt 0.18026258051395416 0.94401401281356812
vt 0.18026258051395416 0.79982417821884155
vn 0 0 1
vn 0 0 1
vn 0 0 1
vn 0 0 1
vn 1 0 0
vn 1 0 0
vn 1 0 0
vn 1 0 0
vn 0 0 -1
vn 0 0 -1
vn 0 0 -1
vn 0 0 -1
vn -1 0 0
vn -1 0 0
vn -1 0 0
vn -1 0 0
vn 0 -1 0
vn 0 -1 0
vn 0 -1 0
vn 0 -1 0
vn 0 1 0
vn 0 1 0
vn 0 1 0
vn 0 1 0
f 1/1/1 3/3/3 4/4/4 2/2/2
f 3/5/5 5/7/7 6/8/8 4/6/6
f 5/9/9 7/11/11 8/12/12 6/10/10
f 7/13/13 1/15/15 2/16/16 8/14/14
f 3/18/18 1/17/17 7/20/20
f 7/20/20 5/19/19 3/18/18
f 4/22/22 8/24/24 2/21/21
f 8/24/24 4/22/22 6/23/23
