# Rhino

mtllib B92.mtl
usemtl B92
v 3.2895410060882568 14.749573707580566 1001.9342651367188
v 3.2895410060882568 56.74957275390625 1001.9342651367188
v 53.289539337158203 14.749573707580566 1001.9342651367188
v 53.289539337158203 56.74957275390625 1001.9342651367188
vt 0.73354315757751465 0.39997953176498413
vt 0.73354315757751465 0.53302216529846191
vt 0.89206534624099731 0.39997953176498413
vt 0.89206534624099731 0.53302216529846191
vn 0 0 1
vn 0 0 1
vn 0 0 1
vn 0 0 1
f 2/2/2 1/1/1 3/3/3 4/4/4
usemtl B92
v 53.289539337158203 14.749573707580566 1001.9342651367188
v 53.289539337158203 56.74957275390625 1001.9342651367188
v 53.289539337158203 14.749573707580566 951.93426513671875
v 53.289539337158203 56.74957275390625 951.93426513671875
vt 0.20674720406532288 0.62841832637786865
vt 0.20674720406532288 0.76146095991134644
vt 0.36526897549629211 0.62841832637786865
vt 0.36526897549629211 0.76146095991134644
vn 1 0 0
vn 1 0 0
vn 1 0 0
vn 1 0 0
f 6/6/6 5/5/5 7/7/7 8/8/8
usemtl B92
v 53.289539337158203 14.749573707580566 951.93426513671875
v 53.289539337158203 56.74957275390625 951.93426513671875
v 3.2895410060882568 14.749573707580566 951.93426513671875
v 3.2895410060882568 56.74957275390625 951.93426513671875
vt 0.39073601365089417 0.62841832637786865
vt 0.39073601365089417 0.76218605041503906
vt 0.54925823211669922 0.62841832637786865
vt 0.54925823211669922 0.76218605041503906
vn 0 0 -1
vn 0 0 -1
vn 0 0 -1
vn 0 0 -1
f 10/10/10 9/9/9 11/11/11 12/12/12
usemtl B92
v 3.2895410060882568 14.749573707580566 951.93426513671875
v 3.2895410060882568 56.74957275390625 951.93426513671875
v 3.2895410060882568 14.749573707580566 1001.9342651367188
v 3.2895410060882568 56.74957275390625 1001.9342651367188
vt 0.39073643088340759 0.62841832637786865
vt 0.39073643088340759 0.76218605041503906
vt 0.54925823211669922 0.62841832637786865
vt 0.54925823211669922 0.76218605041503906
vn -1 0 0
vn -1 0 0
vn -1 0 0
vn -1 0 0
f 14/14/14 13/13/13 15/15/15 16/16/16
usemtl B92
v 3.2895410060882568 14.749573707580566 1001.9342651367188
v 3.2895410060882568 14.749573707580566 951.93426513671875
v 53.289539337158203 14.749573707580566 1001.9342651367188
v 53.289539337158203 14.749573707580566 951.93426513671875
vt 0.023061690852046013 0.45951277017593384
vt 0.023061690852046013 0.53214812278747559
vt 0.095366477966308594 0.45951277017593384
vt 0.095366477966308594 0.53214812278747559
vn 0 -1 0
vn 0 -1 0
vn 0 -1 0
vn 0 -1 0
f 18/18/18 20/20/20 19/19/19 17/17/17
usemtl B92
v 3.2895410060882568 56.74957275390625 951.93426513671875
v 3.2895410060882568 56.74957275390625 1001.9342651367188
v 28.289541244506836 61.74957275390625 976.93426513671875
vt 0.75581485033035278 0.63057214021682739
vt 0.75581485033035278 0.78348451852798462
vt 0.83378523588180542 0.70702832937240601
vn -0.1961161345243454 0.98058068752288818 0
vn -0.1961161345243454 0.98058068752288818 0
vn -0.1961161345243454 0.98058068752288818 0
f 22/22/22 23/23/23 21/21/21
usemtl B92
v 53.289539337158203 56.74957275390625 951.93426513671875
v 53.289539337158203 56.74957275390625 1001.9342651367188
v 28.289541244506836 61.74957275390625 976.93426513671875
vt 0.91304975748062134 0.78475278615951538
vt 0.91304975748062134 0.62930285930633545
vt 0.83378559350967407 0.70702797174453735
vn 0.1961161345243454 0.98058068752288818 0
vn 0.1961161345243454 0.98058068752288818 0
vn 0.1961161345243454 0.98058068752288818 0
f 25/25/25 24/24/24 26/26/26
usemtl B92
v 3.2895410060882568 56.74957275390625 951.93426513671875
v 53.289539337158203 56.74957275390625 951.93426513671875
v 28.289541244506836 61.74957275390625 976.93426513671875
vt 0.75559103488922119 0.78677117824554443
vt 0.9119797945022583 0.78677117824554443
vt 0.83378541469573975 0.70702815055847168
vn 0 0.98058068752288818 -0.1961161345243454
vn 0 0.98058068752288818 -0.1961161345243454
vn 0 0.98058068752288818 -0.1961161345243454
f 28/28/28 27/27/27 29/29/29
usemtl B92
v 3.2895410060882568 56.74957275390625 1001.9342651367188
v 53.289539337158203 56.74957275390625 1001.9342651367188
v 28.289541244506836 61.74957275390625 976.93426513671875
vt 0.90807455778121948 0.63126784563064575
vt 0.75949639081954956 0.63126784563064575
vt 0.83378541469573975 0.70702779293060303
vn 0 0.98058068752288818 0.1961161345243454
vn 0 0.98058068752288818 0.1961161345243454
vn 0 0.98058068752288818 0.1961161345243454
f 31/31/31 32/32/32 30/30/30
usemtl B92
v -46.710460662841797 14.749573707580566 891.93426513671875
v -46.710460662841797 56.74957275390625 891.93426513671875
v -46.710460662841797 14.749573707580566 936.93426513671875
v -46.710460662841797 56.74957275390625 936.93426513671875
vt 0.018265511840581894 0.62849032878875732
vt 0.018265511840581894 0.75977402925491333
vt 0.16012856364250183 0.62849032878875732
vt 0.16012856364250183 0.75977402925491333
vn -1 0 0
vn -1 0 0
vn -1 0 0
vn -1 0 0
f 34/34/34 33/33/33 35/35/35 36/36/36
usemtl B92
v -46.710460662841797 14.749573707580566 936.93426513671875
v -46.710460662841797 56.74957275390625 936.93426513671875
v 9.2895412445068359 14.749573707580566 936.93426513671875
v 9.2895412445068359 56.74957275390625 936.93426513671875
vt 0.35814911127090454 0.40040045976638794
vt 0.35814911127090454 0.53280633687973022
vt 0.53356814384460449 0.40040045976638794
vt 0.53356814384460449 0.53280633687973022
vn 0 0 1
vn 0 0 1
vn 0 0 1
vn 0 0 1
f 38/38/38 37/37/37 39/39/39 40/40/40
usemtl B92
v 9.2895412445068359 14.749573707580566 936.93426513671875
v 9.2895412445068359 56.74957275390625 936.93426513671875
v 9.2895412445068359 14.749573707580566 951.93426513671875
v 9.2895412445068359 56.74957275390625 951.93426513671875
vt 0.36224138736724854 0.40034133195877075
vt 0.36224138736724854 0.53274720907211304
vt 0.38449546694755554 0.40034133195877075
vt 0.38449546694755554 0.53274720907211304
vn -1 0 0
vn -1 0 0
vn -1 0 0
vn -1 0 0
f 42/42/42 41/41/41 43/43/43 44/44/44
usemtl B92
v 9.2895412445068359 14.749573707580566 951.93426513671875
v 9.2895412445068359 56.74957275390625 951.93426513671875
v 53.289539337158203 14.749573707580566 951.93426513671875
v 53.289539337158203 56.74957275390625 951.93426513671875
vt 0.65379196405410767 0.41552373766899109
vt 0.54270458221435547 0.41552373766899109
vt 0.65379196405410767 0.53190094232559204
vt 0.54270458221435547 0.53190094232559204
vn 0 0 1
vn 0 0 1
vn 0 0 1
vn 0 0 1
f 46/46/46 45/45/45 47/47/47 48/48/48
usemtl B92
v -46.710460662841797 14.749573707580566 891.93426513671875
v 53.289539337158203 14.749573707580566 951.93426513671875
v 53.289539337158203 14.749573707580566 891.93426513671875
v -46.710460662841797 14.749573707580566 936.93426513671875
v 9.2895412445068359 14.749573707580566 936.93426513671875
v 9.2895412445068359 14.749573707580566 951.93426513671875
vt 0.60170716047286987 0.45671558380126953
vt 0.63568687438964844 0.51348370313644409
vt 0.60170716047286987 0.51348370313644409
vt 0.62719190120697021 0.45671558380126953
vt 0.62719196081161499 0.48850572109222412
vt 0.63568687438964844 0.48850572109222412
vn 0 -1 0
vn 0 -1 0
vn 0 -1 0
vn 0 -1 0
vn 0 -1 0
vn 0 -1 0
f 53/53/53 52/52/52 49/49/49
f 51/51/51 50/50/50 53/53/53
f 54/54/54 53/53/53 50/50/50
f 49/49/49 51/51/51 53/53/53
usemtl B92
v -36.710460662841797 56.74957275390625 891.93426513671875
v -36.710460662841797 66.74957275390625 891.93426513671875
v -36.710460662841797 56.74957275390625 930.93426513671875
v -36.710460662841797 66.74957275390625 930.93426513671875
vt 0.02888803742825985 0.76226866245269775
vt 0.02888803742825985 0.79267174005508423
vt 0.15183597803115845 0.76226866245269775
vt 0.15183597803115845 0.79267174005508423
vn -1 0 0
vn -1 0 0
vn -1 0 0
vn -1 0 0
f 56/56/56 55/55/55 57/57/57 58/58/58
usemtl B92
v -36.710460662841797 56.74957275390625 930.93426513671875
v -36.710460662841797 66.74957275390625 930.93426513671875
v 9.2895412445068359 56.74957275390625 936.93426513671875
v 9.2895412445068359 66.74957275390625 936.93426513671875
vt 0.38817456364631653 0.53286653757095337
vt 0.38817456364631653 0.56326955556869507
vt 0.53441888093948364 0.53286653757095337
vt 0.53441888093948364 0.56326955556869507
vn -0.12933918833732605 0 0.9916003942489624
vn -0.12933918833732605 0 0.9916003942489624
vn -0.12933918833732605 0 0.9916003942489624
vn -0.12933918833732605 0 0.9916003942489624
f 60/60/60 59/59/59 61/61/61 62/62/62
usemtl B92
v -46.710460662841797 66.74957275390625 891.93426513671875
v -46.710460662841797 69.74957275390625 891.93426513671875
v -46.710460662841797 66.74957275390625 936.93426513671875
v -46.710460662841797 69.74957275390625 936.93426513671875
vt 0.018654035404324532 0.7935062050819397
vt 0.018654035404324532 0.8018416166305542
vt 0.16051703691482544 0.7935062050819397
vt 0.16051703691482544 0.8018416166305542
vn -1 0 0
vn -1 0 0
vn -1 0 0
vn -1 0 0
f 64/64/64 63/63/63 65/65/65 66/66/66
usemtl B92
v -46.710460662841797 69.74957275390625 936.93426513671875
v -46.710460662841797 69.74957275390625 891.93426513671875
v 53.289539337158203 69.74957275390625 936.93426513671875
v 53.289539337158203 69.74957275390625 891.93426513671875
v 20.936254501342773 69.74957275390625 929.43426513671875
v 8.9362545013427734 69.74957275390625 929.43426513671875
v 20.936254501342773 69.74957275390625 899.43426513671875
v 8.9362545013427734 69.74957275390625 899.43426513671875
vt 0.33306205272674561 0.98432952165603638
vt 0.33306205272674561 0.84246647357940674
vt 0.017809905111789703 0.98432952165603638
vt 0.017809905111789703 0.84246647357940674
vt 0.11980432271957397 0.96068596839904785
vt 0.15763458609580994 0.96068596839904785
vt 0.11980431526899338 0.86611032485961914
vt 0.15763458609580994 0.86611032485961914
vn 0 1 0
vn 0 1 0
vn 0 1 0
vn 0 1 0
vn 0 1 0
vn 0 1 0
vn 0 1 0
vn 0 1 0
f 68/68/68 67/67/67 72/72/72 74/74/74
f 69/69/69 72/72/72 67/67/67
f 70/70/70 68/68/68 74/74/74
f 69/69/69 70/70/70 73/73/73 71/71/71
f 72/72/72 69/69/69 71/71/71
f 74/74/74 73/73/73 70/70/70
usemtl B92
v 8.9362545013427734 69.74957275390625 929.43426513671875
v 8.9362545013427734 79.74957275390625 929.43426513671875
v 20.936254501342773 69.74957275390625 929.43426513671875
v 20.936254501342773 79.74957275390625 929.43426513671875
vt 0.53448283672332764 0.57430148124694824
vt 0.53448283672332764 0.605826735496521
vt 0.57119095325469971 0.57430148124694824
vt 0.57119095325469971 0.605826735496521
vn 0 0 1
vn 0 0 1
vn 0 0 1
vn 0 0 1
f 76/76/76 75/75/75 77/77/77 78/78/78
usemtl B92
v 20.936254501342773 69.74957275390625 929.43426513671875
v 20.936254501342773 79.74957275390625 929.43426513671875
v 20.936254501342773 69.74957275390625 899.43426513671875
v 20.936254501342773 79.74957275390625 899.43426513671875
vt 0.6206817626953125 0.80403053760528564
vt 0.6206817626953125 0.83443361520767212
vt 0.71525698900222778 0.80403053760528564
vt 0.71525698900222778 0.83443361520767212
vn 1 0 0
vn 1 0 0
vn 1 0 0
vn 1 0 0
f 80/80/80 79/79/79 81/81/81 82/82/82
usemtl B92
v 20.936254501342773 69.74957275390625 899.43426513671875
v 20.936254501342773 79.74957275390625 899.43426513671875
v 8.9362545013427734 69.74957275390625 899.43426513671875
v 8.9362545013427734 79.74957275390625 899.43426513671875
vt 0.53410798311233521 0.57495421171188354
vt 0.53410798311233521 0.60647940635681152
vt 0.5708160400390625 0.57495421171188354
vt 0.5708160400390625 0.60647940635681152
vn 0 0 -1
vn 0 0 -1
vn 0 0 -1
vn 0 0 -1
f 84/84/84 83/83/83 85/85/85 86/86/86
usemtl B92
v 8.9362545013427734 69.74957275390625 899.43426513671875
v 8.9362545013427734 79.74957275390625 899.43426513671875
v 8.9362545013427734 69.74957275390625 929.43426513671875
v 8.9362545013427734 79.74957275390625 929.43426513671875
vt 0.043369125574827194 0.80400460958480835
vt 0.043369125574827194 0.83440768718719482
vt 0.13794435560703278 0.80400460958480835
vt 0.13794435560703278 0.83440768718719482
vn -1 0 0
vn -1 0 0
vn -1 0 0
vn -1 0 0
f 88/88/88 87/87/87 89/89/89 90/90/90
usemtl B92
v 8.9362545013427734 79.74957275390625 929.43426513671875
v 8.9362545013427734 79.74957275390625 899.43426513671875
v 20.936254501342773 79.74957275390625 929.43426513671875
v 20.936254501342773 79.74957275390625 899.43426513671875
vt 0.65164631605148315 0.41518405079841614
vt 0.55819326639175415 0.41518405079841614
vt 0.65164631605148315 0.4530143141746521
vt 0.55819326639175415 0.4530143141746521
vn 0 1 0
vn 0 1 0
vn 0 1 0
vn 0 1 0
f 92/92/92 91/91/91 93/93/93 94/94/94
usemtl B92
v -46.710460662841797 66.74957275390625 936.93426513671875
v -46.710460662841797 66.74957275390625 891.93426513671875
v 9.2895412445068359 66.74957275390625 936.93426513671875
v -36.710460662841797 66.74957275390625 930.93426513671875
v -36.710460662841797 66.74957275390625 891.93426513671875
vt 0.60364890098571777 0.71526050567626953
vt 0.60364890098571777 0.78197747468948364
vt 0.68667459487915039 0.71526050567626953
vt 0.61847490072250366 0.7241559624671936
vt 0.61847490072250366 0.78197747468948364
vn 0 -1 0
vn 0 -1 0
vn 0 -1 0
vn 0 -1 0
vn 0 -1 0
f 98/98/98 95/95/95 96/96/96
f 95/95/95 98/98/98 97/97/97
f 96/96/96 99/99/99 98/98/98
usemtl B92
v 9.2895412445068359 56.74957275390625 951.93426513671875
v 9.2895412445068359 56.74957275390625 936.93426513671875
v 53.289539337158203 56.74957275390625 951.93426513671875
v 53.289539337158203 56.74957275390625 936.93426513671875
vt 0.15281623601913452 0.88051611185073853
vt 0.127797931432724 0.88051611185073853
vt 0.15281623601913452 0.95568764209747314
vt 0.127797931432724 0.95568764209747314
vn 0 1 0
vn 0 1 0
vn 0 1 0
vn 0 1 0
f 101/101/101 100/100/100 102/102/102 103/103/103
usemtl B92
v -46.710460662841797 56.74957275390625 936.93426513671875
v -46.710460662841797 56.74957275390625 891.93426513671875
v 9.2895412445068359 56.74957275390625 936.93426513671875
v -36.710460662841797 56.74957275390625 930.93426513671875
v -36.710460662841797 56.74957275390625 891.93426513671875
vt 0.12422455102205276 0.93614798784255981
vt 0.15455560386180878 0.93614798784255981
vt 0.12422455102205276 0.89864248037338257
vt 0.12826864421367645 0.9294506311416626
vt 0.15455560386180878 0.9294506311416626
vn 0 1 0
vn 0 1 0
vn 0 1 0
vn 0 1 0
vn 0 1 0
f 107/107/107 105/105/105 104/104/104
f 104/104/104 106/106/106 107/107/107
f 105/105/105 107/107/107 108/108/108
usemtl B92
v -46.710460662841797 69.74957275390625 936.93426513671875
v 53.289539337158203 56.74957275390625 936.93426513671875
v 53.289539337158203 69.74957275390625 936.93426513671875
v 9.2895412445068359 66.74957275390625 936.93426513671875
v 9.2895412445068359 56.74957275390625 936.93426513671875
v -46.710460662841797 66.74957275390625 936.93426513671875
vt 0.35945612192153931 0.57446354627609253
vt 0.67358607053756714 0.53348076343536377
vt 0.67358607053756714 0.57446354627609253
vt 0.53536891937255859 0.56500601768493652
vt 0.53536891937255859 0.53348076343536377
vt 0.35945612192153931 0.56500601768493652
vn 0 0 1
vn 0 0 1
vn 0 0 1
vn 0 0 1
vn 0 0 1
vn 0 0 1
f 112/112/112 109/109/109 114/114/114
f 110/110/110 111/111/111 112/112/112 113/113/113
f 109/109/109 112/112/112 111/111/111
usemtl B92
v 53.289539337158203 14.749573707580566 951.93426513671875
v 53.289539337158203 14.749573707580566 891.93426513671875
v 53.289539337158203 69.74957275390625 891.93426513671875
v 53.289539337158203 56.74957275390625 951.93426513671875
v 53.289539337158203 56.74957275390625 936.93426513671875
v 53.289539337158203 69.74957275390625 936.93426513671875
vt 0.56135076284408569 0.62898021936416626
vt 0.7398369312286377 0.62898021936416626
vt 0.7398369312286377 0.8023688793182373
vt 0.56135076284408569 0.76138609647750854
vt 0.60597211122512817 0.76138609647750854
vt 0.60597246885299683 0.8023688793182373
vn 1 0 0
vn 1 0 0
vn 1 0 0
vn 1 0 0
vn 1 0 0
vn 1 0 0
f 115/115/115 119/119/119 118/118/118
f 117/117/117 119/119/119 116/116/116
f 115/115/115 116/116/116 119/119/119
f 120/120/120 119/119/119 117/117/117
usemtl B92
v 53.289539337158203 14.749573707580566 891.93426513671875
v 53.289539337158203 69.74957275390625 891.93426513671875
v -46.710460662841797 14.749573707580566 891.93426513671875
v -46.710460662841797 69.74957275390625 891.93426513671875
v -46.710460662841797 56.74957275390625 891.93426513671875
v -36.710460662841797 56.74957275390625 891.93426513671875
v -36.710460662841797 66.74957275390625 891.93426513671875
v -46.710460662841797 66.74957275390625 891.93426513671875
vt 0.017457252368330956 0.40091109275817871
vt 0.017457252368330956 0.57315373420715332
vt 0.32951080799102783 0.40091109275817871
vt 0.32951080799102783 0.57315373420715332
vt 0.32951080799102783 0.53244179487228394
vt 0.29830548167228699 0.53244179487228394
vt 0.29830548167228699 0.56375867128372192
vt 0.32951080799102783 0.56375867128372192
vn 0 0 -1
vn 0 0 -1
vn 0 0 -1
vn 0 0 -1
vn 0 0 -1
vn 0 0 -1
vn 0 0 -1
vn 0 0 -1
f 122/122/122 121/121/121 126/126/126
f 123/123/123 126/126/126 121/121/121
f 124/124/124 122/122/122 127/127/127
f 126/126/126 127/127/127 122/122/122
f 126/126/126 123/123/123 125/125/125
f 127/127/127 128/128/128 124/124/124
usemtl B92
v -35.710460662841797 24.749574661254883 946.93414306640625
v -35.710460662841797 59.74957275390625 946.93414306640625
v 9.2895412445068359 24.749574661254883 940.93414306640625
v 9.2895412445068359 59.74957275390625 940.93414306640625
v 9.2895412445068359 24.749574661254883 936.93414306640625
v 9.2895412445068359 59.74957275390625 936.93414306640625
v -35.710460662841797 24.749574661254883 936.93414306640625
v -35.710460662841797 59.74957275390625 936.93414306640625
vt 0.42683812975883484 0.84165048599243164
vt 0.42683812975883484 0.94874715805053711
vt 0.48375916481018066 0.84165048599243164
vt 0.48375916481018066 0.94874715805053711
vt 0.48375916481018066 0.84165048599243164
vt 0.48375916481018066 0.94874715805053711
vt 0.48877438902854919 0.84165048599243164
vt 0.48877438902854919 0.94874715805053711
vt 0.48877438902854919 0.84165048599243164
vt 0.48877438902854919 0.94874715805053711
vt 0.5451960563659668 0.84165048599243164
vt 0.5451960563659668 0.94874715805053711
vt 0.5451960563659668 0.84165048599243164
vt 0.5451960563659668 0.94874715805053711
vt 0.55773425102233887 0.84165048599243164
vt 0.55773425102233887 0.94874715805053711
vt 0.42698809504508972 0.90099507570266724
vt 0.48328050971031189 0.88674819469451904
vt 0.48328050971031189 0.8772503137588501
vt 0.42698809504508972 0.8772503137588501
vt 0.50129187107086182 0.8772503137588501
vt 0.55758428573608398 0.89149719476699829
vt 0.55758428573608398 0.90099507570266724
vt 0.50129187107086182 0.90099507570266724
vn 0.13216371834278107 0 0.99122792482376099
vn 0.13216371834278107 0 0.99122792482376099
vn 0.13216371834278107 0 0.99122792482376099
vn 0.13216371834278107 0 0.99122792482376099
vn 1 0 0
vn 1 0 0
vn 1 0 0
vn 1 0 0
vn 0 0 -1
vn 0 0 -1
vn 0 0 -1
vn 0 0 -1
vn -1 0 0
vn -1 0 0
vn -1 0 0
vn -1 0 0
vn 0 -1 0
vn 0 -1 0
vn 0 -1 0
vn 0 -1 0
vn 0 1 0
vn 0 1 0
vn 0 1 0
vn 0 1 0
f 129/129/129 131/131/131 132/132/132 130/130/130
f 131/133/133 133/135/135 134/136/136 132/134/134
f 133/137/137 135/139/139 136/140/140 134/138/138
f 135/141/141 129/143/143 130/144/144 136/142/142
f 131/146/146 129/145/145 135/148/148
f 135/148/148 133/147/147 131/146/146
f 132/150/150 136/152/152 130/149/149
f 136/152/152 132/150/150 134/151/151
