# Rhino

mtllib B128B.mtl
usemtl B128B
v 92.565200805664062 15 398.92098999023438
v -319.4722900390625 15 753.96588134765625
v 179.00762939453125 15 499.23934936523438
v -233.02984619140625 15 854.28424072265625
v 179.00762939453125 51 499.23934936523438
v -233.02984619140625 51 854.28424072265625
v 160.26533508300781 65 477.48849487304688
v -251.77215576171875 65 832.53338623046875
v 160.26533508300781 85 477.48849487304688
v -251.77215576171875 85 832.53338623046875
v 135.78642272949219 103 449.08016967773438
v -276.25106811523438 103 804.12506103515625
v 111.30750274658203 85 420.67184448242188
v -300.72998046875 85 775.71673583984375
v 111.30750274658203 65 420.67184448242188
v -300.72998046875 65 775.71673583984375
v 92.565200805664062 51 398.92098999023438
v -319.4722900390625 51 753.96588134765625
vt 0.90022969245910645 0.031848348677158356
vt 0.41144436597824097 0.031848359853029251
vt 0.90022969245910645 0.19397328794002533
vt 0.41144436597824097 0.19397330284118652
vt 0.9573325514793396 0.35563543438911438
vt 0.4168097972869873 0.35563543438911438
vt 0.9573325514793396 0.39176341891288757
vt 0.4168097972869873 0.39176341891288757
vt 0.13336779177188873 0.91639506816864014
vt 0.13336780667304993 0.42760974168777466
vt 0.094260014593601227 0.91639506816864014
vt 0.094260022044181824 0.42760974168777466
vt 0.95724141597747803 0.40673601627349854
vt 0.41586211323738098 0.40673601627349854
vt 0.95724141597747803 0.4250795841217041
vt 0.41586211323738098 0.4250795841217041
vt 0.42142400145530701 0.96903622150421143
vt 0.42142400145530701 0.42275464534759521
vt 0.37988534569740295 0.96903622150421143
vt 0.37988534569740295 0.42275464534759521
vt 0.37988534569740295 0.42275464534759521
vt 0.37988534569740295 0.9690362811088562
vt 0.42142400145530701 0.42275464534759521
vt 0.42142400145530701 0.9690362811088562
vt 0.45222461223602295 0.71949505805969238
vt 0.99360388517379761 0.71949505805969238
vt 0.45222461223602295 0.70102035999298096
vt 0.99360388517379761 0.70102035999298096
vt 0.32964047789573669 0.45585662126541138
vt 0.32964047789573669 0.94464194774627686
vt 0.36874827742576599 0.45585662126541138
vt 0.36874827742576599 0.94464194774627686
vt 0.48239612579345703 0.68632626533508301
vt 1.0229188203811646 0.68632680177688599
vt 0.48239609599113464 0.64987951517105103
vt 1.022918701171875 0.649880051612854
vt 0.18566498160362244 0.23928393423557281
vt 0.051993764936923981 0.23928393423557281
vt 0.051993764936923981 0.27526962757110596
vt 0.080976143479347229 0.28926405310630798
vt 0.080976143479347229 0.30925610661506653
vt 0.11882934719324112 0.3272489607334137
vt 0.15668259561061859 0.30925610661506653
vt 0.15668259561061859 0.28926405310630798
vt 0.18566498160362244 0.27526962757110596
vt 0.051993776112794876 0.23928393423557281
vt 0.18566498160362244 0.23928393423557281
vt 0.18566498160362244 0.27526962757110596
vt 0.15668261051177979 0.28926405310630798
vt 0.15668259561061859 0.30925610661506653
vt 0.11882935464382172 0.3272489607334137
vt 0.080976150929927826 0.30925610661506653
vt 0.080976150929927826 0.28926405310630798
vt 0.051993776112794876 0.27526962757110596
vn 0 -1 0
vn 0 -1 0
vn 0 -1 0
vn 0 -1 0
vn 0.65277099609375 0 0.75755530595779419
vn 0.65277099609375 0 0.75755530595779419
vn 0.65277099609375 0 0.75755530595779419
vn 0.65277099609375 0 0.75755530595779419
vn 0.2860943078994751 0.89884012937545776 0.33201882243156433
vn 0.2860943078994751 0.89884012937545776 0.33201882243156433
vn 0.2860943078994751 0.89884012937545776 0.33201882243156433
vn 0.2860943078994751 0.89884012937545776 0.33201882243156433
vn 0.65277099609375 0 0.75755530595779419
vn 0.65277099609375 0 0.75755530595779419
vn 0.65277099609375 0 0.75755530595779419
vn 0.65277099609375 0 0.75755530595779419
vn 0.28247427940368652 0.90152305364608765 0.32781770825386047
vn 0.28247427940368652 0.90152305364608765 0.32781770825386047
vn 0.28247427940368652 0.90152305364608765 0.32781770825386047
vn 0.28247427940368652 0.90152305364608765 0.32781770825386047
vn -0.28247427940368652 0.90152305364608765 -0.32781770825386047
vn -0.28247427940368652 0.90152305364608765 -0.32781770825386047
vn -0.28247427940368652 0.90152305364608765 -0.32781770825386047
vn -0.28247427940368652 0.90152305364608765 -0.32781770825386047
vn -0.65277099609375 0 -0.75755530595779419
vn -0.65277099609375 0 -0.75755530595779419
vn -0.65277099609375 0 -0.75755530595779419
vn -0.65277099609375 0 -0.75755530595779419
vn -0.2860943078994751 0.89884012937545776 -0.33201882243156433
vn -0.2860943078994751 0.89884012937545776 -0.33201882243156433
vn -0.2860943078994751 0.89884012937545776 -0.33201882243156433
vn -0.2860943078994751 0.89884012937545776 -0.33201882243156433
vn -0.65277099609375 0 -0.75755530595779419
vn -0.65277099609375 0 -0.75755530595779419
vn -0.65277099609375 0 -0.75755530595779419
vn -0.65277099609375 0 -0.75755530595779419
vn 0.75755530595779419 0 -0.65277099609375
vn 0.75755530595779419 0 -0.65277099609375
vn 0.75755530595779419 0 -0.65277099609375
vn 0.75755530595779419 0 -0.65277099609375
vn 0.75755530595779419 0 -0.65277099609375
vn 0.75755530595779419 0 -0.65277099609375
vn 0.75755530595779419 0 -0.65277099609375
vn 0.75755530595779419 0 -0.65277099609375
vn 0.75755530595779419 0 -0.65277099609375
vn -0.75755530595779419 0 0.65277099609375
vn -0.75755530595779419 0 0.65277099609375
vn -0.75755530595779419 0 0.65277099609375
vn -0.75755530595779419 0 0.65277099609375
vn -0.75755530595779419 0 0.65277099609375
vn -0.75755530595779419 0 0.65277099609375
vn -0.75755530595779419 0 0.65277099609375
vn -0.75755530595779419 0 0.65277099609375
vn -0.75755530595779419 0 0.65277099609375
f 1/1/1 3/3/3 4/4/4 2/2/2
f 3/5/5 5/7/7 6/8/8 4/6/6
f 5/9/9 7/11/11 8/12/12 6/10/10
f 7/13/13 9/15/15 10/16/16 8/14/14
f 9/17/17 11/19/19 12/20/20 10/18/18
f 11/21/21 13/23/23 14/24/24 12/22/22
f 13/25/25 15/27/27 16/28/28 14/26/26
f 15/29/29 17/31/31 18/32/32 16/30/30
f 17/33/33 1/35/35 2/36/36 18/34/34
f 11/42/42 9/41/41 7/40/40
f 7/40/40 5/39/39 3/38/38
f 3/38/38 15/44/44 7/40/40
f 15/44/44 13/43/43 11/42/42
f 1/37/37 17/45/45 15/44/44
f 15/44/44 3/38/38 1/37/37
f 11/42/42 7/40/40 15/44/44
f 12/51/51 8/49/49 10/50/50
f 8/49/49 4/47/47 6/48/48
f 4/47/47 8/49/49 16/53/53
f 16/53/53 12/51/51 14/52/52
f 2/46/46 16/53/53 18/54/54
f 16/53/53 2/46/46 4/47/47
f 12/51/51 16/53/53 8/49/49
