# Rhino

mtllib B123.mtl
usemtl B123
v 16.538064956665039 84.000007629394531 348.45767211914062
v -60.591373443603516 84.000007629394531 414.91867065429688
v -11.699711799621582 60.000007629394531 315.68710327148438
v -88.829154968261719 60.000007629394531 382.1480712890625
vt 0.093995630741119385 0.41678473353385925
vt 0.093995630741119385 0.51910275220870972
vt 0.14371079206466675 0.41678473353385925
vt 0.14371073246002197 0.51910275220870972
vn -0.31668698787689209 0.87443506717681885 -0.36752229928970337
vn -0.31668698787689209 0.87443506717681885 -0.36752229928970337
vn -0.31668698787689209 0.87443506717681885 -0.36752229928970337
vn -0.31668698787689209 0.87443506717681885 -0.36752229928970337
f 2/2/2 1/1/1 3/3/3 4/4/4
usemtl B123
v -11.699711799621582 60.000007629394531 315.68710327148438
v -88.829154968261719 60.000007629394531 382.1480712890625
v -11.699711799621582 15 315.68710327148438
v -88.829154968261719 15 382.1480712890625
vt 0.75497299432754517 0.2387627512216568
vt 0.65265494585037231 0.2387627512216568
vt 0.75497299432754517 0.28398561477661133
vt 0.65265494585037231 0.28398561477661133
vn -0.65277099609375 0 -0.75755530595779419
vn -0.65277099609375 0 -0.75755530595779419
vn -0.65277099609375 0 -0.75755530595779419
vn -0.65277099609375 0 -0.75755530595779419
f 6/6/6 5/5/5 7/7/7 8/8/8
usemtl B123
v 44.775844573974609 15 381.22824096679688
v -32.353595733642578 15 447.689208984375
v 44.775844573974609 60.000007629394531 381.22824096679688
v -32.353595733642578 60.000007629394531 447.689208984375
vt 0.75496363639831543 0.23892338573932648
vt 0.65264558792114258 0.23892338573932648
vt 0.75496363639831543 0.28414636850357056
vt 0.65264558792114258 0.28414636850357056
vn 0.65277099609375 0 0.75755530595779419
vn 0.65277099609375 0 0.75755530595779419
vn 0.65277099609375 0 0.75755530595779419
vn 0.65277099609375 0 0.75755530595779419
f 10/10/10 9/9/9 11/11/11 12/12/12
usemtl B123
v 44.775844573974609 60.000007629394531 381.22824096679688
v -32.353595733642578 60.000007629394531 447.689208984375
v 16.538064956665039 84.000007629394531 348.45767211914062
v -60.591373443603516 84.000007629394531 414.91867065429688
vt 0.14472535252571106 0.41678473353385925
vt 0.14472535252571106 0.51910275220870972
vt 0.19444045424461365 0.41678473353385925
vt 0.19444043934345245 0.51910275220870972
vn 0.31668698787689209 0.87443506717681885 0.36752229928970337
vn 0.31668698787689209 0.87443506717681885 0.36752229928970337
vn 0.31668698787689209 0.87443506717681885 0.36752229928970337
vn 0.31668698787689209 0.87443506717681885 0.36752229928970337
f 14/14/14 13/13/13 15/15/15 16/16/16
usemtl B123
v -11.699711799621582 15 315.68710327148438
v -88.829154968261719 15 382.1480712890625
v 44.775844573974609 15 381.22824096679688
v -32.353595733642578 15 447.689208984375
vt 0.56291824579238892 0.56611675024032593
vt 0.56291824579238892 0.46379861235618591
vt 0.47597292065620422 0.56611675024032593
vt 0.47597292065620422 0.46379861235618591
vn 0 -1 0
vn 0 -1 0
vn 0 -1 0
vn 0 -1 0
f 18/18/18 17/17/17 19/19/19 20/20/20
usemtl B123
v 44.775844573974609 15 381.22824096679688
v -11.699711799621582 15 315.68710327148438
v 16.538064956665039 84.000007629394531 348.45767211914062
v -11.699711799621582 60.000007629394531 315.68710327148438
v 44.775844573974609 60.000007629394531 381.22824096679688
vt 0.8687589168548584 0.23938016593456268
vt 0.9548916220664978 0.23938016593456268
vt 0.91182535886764526 0.30807399749755859
vt 0.9548916220664978 0.28418046236038208
vt 0.8687589168548584 0.28418046236038208
vn 0.75755530595779419 0 -0.65277099609375
vn 0.75755530595779419 0 -0.65277099609375
vn 0.75755530595779419 0 -0.65277099609375
vn 0.75755530595779419 0 -0.65277099609375
vn 0.75755530595779419 0 -0.65277099609375
f 21/21/21 22/22/22 24/24/24 25/25/25
f 23/23/23 25/25/25 24/24/24
usemtl B123
v -32.353595733642578 15 447.689208984375
v -88.829154968261719 15 382.1480712890625
v -60.591373443603516 84.000007629394531 414.91867065429688
v -88.829154968261719 60.000007629394531 382.1480712890625
v -32.353595733642578 60.000007629394531 447.689208984375
vt 0.85616421699523926 0.23938016593456268
vt 0.77003151178359985 0.23938016593456268
vt 0.81309789419174194 0.30807399749755859
vt 0.77003151178359985 0.28418052196502686
vt 0.85616421699523926 0.28418046236038208
vn -0.75755530595779419 0 0.65277099609375
vn -0.75755530595779419 0 0.65277099609375
vn -0.75755530595779419 0 0.65277099609375
vn -0.75755530595779419 0 0.65277099609375
vn -0.75755530595779419 0 0.65277099609375
f 26/26/26 30/30/30 29/29/29 27/27/27
f 28/28/28 29/29/29 30/30/30
